<svg xmlns="http://www.w3.org/2000/svg" width="100" height="100" viewBox="0 0 100 100"><title>where</title><path d="M81.66406,52.49609a2.99849,2.99849,0,0,1-4.16016-.832L53,14.9082V95a3,3,0,0,1-6,0V14.9082L22.49609,51.66406a2.99993,2.99993,0,0,1-4.99219-3.32812L47.492,3.35376l.00787-.01172.004-.0061.00385-.00464a2.99741,2.99741,0,0,1,.197-.2417c.05719-.06885.10651-.14246.17047-.20654l.00616-.00647a2.92367,2.92367,0,0,1,.26019-.21472c.0639-.05078.12183-.10864.18976-.15417l.00464-.00378.00024-.00012a2.93039,2.93039,0,0,1,.29553-.15906c.072-.03735.13928-.08179.21454-.11328l.02362-.01025c.03687-.015.07562-.02051.11292-.03394.06952-.02515.14069-.04407.21173-.064.07068-.01978.13721-.04858.2099-.06323l.02124-.00342c.0799-.01562.16046-.01562.24078-.02466a3.01326,3.01326,0,0,1,.32776-.03137L50,2l.00861.00085c.07617.00037.1507.01575.2265.02161a2.978,2.978,0,0,1,.34473.03516l.01276.0022a2.861,2.861,0,0,1,.27551.083c.08881.02686.1792.04456.26617.0802l.01648.00745c.09039.0376.17181.09.25745.13586.08472.04517.17279.08276.2533.13623l.00256.00134.00464.00378c.08295.05566.15454.12512.23138.1886.07251.05981.14984.11182.21716.1792l.00757.00757c.064.06409.11328.1377.17047.20654a2.99816,2.99816,0,0,1,.197.2417l.00378.00464.004.0061.00787.01172,29.9881,44.98218A3.00014,3.00014,0,0,1,81.66406,52.49609Z"/></svg>