<svg xmlns="http://www.w3.org/2000/svg" width="100" height="100" viewBox="0 0 100 100"><title>where</title><path d="M84.79626,18.43115a2.99222,2.99222,0,0,1-.03412.33276l-.00043.00464-.001.00537-.00348.01709L74.1543,71.80176a3.0001,3.0001,0,0,1-2.93848,2.41211,3.03917,3.03917,0,0,1-.5918-.05859A3.00012,3.00012,0,0,1,68.27148,70.625l8.66425-43.31812-56.634,56.634a2.99968,2.99968,0,0,1-4.24219-4.24219L72.6933,23.06494,29.375,31.72852a3.00006,3.00006,0,0,1-1.17578-5.88379L81.20667,15.24341l.0141-.00281.01166-.00232.00647-.00061a2.96046,2.96046,0,0,1,.335-.03381c.07941-.00659.15662-.02271.23724-.02283l.01636-.00012c.0896,0,.17554.01721.26367.02515a3.03443,3.03443,0,0,1,.31024.03149l.00781.00073.00494.00146a2.93242,2.93242,0,0,1,.29529.08911c.08478.02637.1712.04456.25385.07861l.02051.00732c.0675.02832.12622.06958.1908.10254.04462.02271.08881.046.1322.07092.05609.03223.11578.0553.17017.09143l.01776.01184c.07391.0498.13678.11169.20551.1676a3.01582,3.01582,0,0,1,.23987.19885l.00134.0011.00287.00354c.05475.05505.09772.11938.14795.17834a2.96912,2.96912,0,0,1,.21881.26855l.00824.012c.05023.07544.084.15747.12671.23621l.00848.01575c.04364.08179.095.15808.13123.24463l.00659.01758a2.945,2.945,0,0,1,.08905.28809c.02667.08862.06116.17419.07959.26563l.00079.00244.00043.00464a2.99222,2.99222,0,0,1,.03412.33276c.0069.08179.02338.16138.02344.24438v.01318C84.81964,18.26978,84.80316,18.34937,84.79626,18.43115Z"/></svg>