<svg xmlns="http://www.w3.org/2000/svg" width="100" height="100" viewBox="0 0 100 100"><title>where</title><path d="M83.94141,20.30127,27.30774,76.93494,70.625,68.27148a3.00006,3.00006,0,0,1,1.17578,5.88379L18.76855,84.76172l-.00647.00073-.03119.00464a2.97183,2.97183,0,0,1-.5473.05322l-.00293-.00024-.00293.00024a2.97249,2.97249,0,0,1-.54736-.05322l-.031-.00464-.00659-.00073c-.03961-.00793-.07434-.02539-.11322-.03479a3.0109,3.0109,0,0,1-.37177-.11023c-.02527-.00977-.0509-.01685-.076-.02722-.05042-.02087-.095-.05017-.14392-.07361a3.03623,3.03623,0,0,1-.27472-.14673c-.03235-.02-.06647-.03491-.09821-.05615-.03894-.02612-.07245-.05786-.10992-.08557a3.00166,3.00166,0,0,1-.25275-.21057l-.01117-.00928c-.02606-.02441-.05615-.04126-.08154-.06665l-.00342-.00415c-.02106-.02112-.03735-.046-.05774-.06787a2.98241,2.98241,0,0,1-.2251-.27637c-.02887-.03906-.06433-.07312-.09125-.11365-.01025-.01538-.01758-.03186-.02747-.04736a2.9864,2.9864,0,0,1-.17426-.32849c-.0224-.047-.05157-.09009-.07153-.13843l-.01294-.03125a3.04275,3.04275,0,0,1-.11035-.36768c-.01355-.05225-.03479-.10156-.04547-.15479l-.00079-.00269-.00043-.00464a2.99222,2.99222,0,0,1-.03412-.33276c-.0069-.08179-.02338-.16138-.02344-.24438v-.01318c.00006-.083.01654-.1626.02344-.24438a2.99222,2.99222,0,0,1,.03412-.33276l.00043-.00464.001-.00537.00348-.01709L25.8457,28.19824A2.99968,2.99968,0,1,1,31.72852,29.375L23.065,72.69336,79.69922,16.05908a2.99968,2.99968,0,0,1,4.24219,4.24219Z"/></svg>