<svg xmlns="http://www.w3.org/2000/svg" width="100" height="100" viewBox="0 0 100 100"><title>where</title><path d="M84.79626,82.0708a2.99222,2.99222,0,0,1-.03412.33276l-.00043.00464-.00079.00269c-.01086.05371-.03223.10376-.046.15662a3.04627,3.04627,0,0,1-.10974.36548l-.01294.03137c-.02057.04968-.05054.09412-.07367.14258a3.00144,3.00144,0,0,1-.17194.324c-.00995.01563-.01715.0321-.0274.04761-.02789.042-.0647.07739-.09473.11816a3.0031,3.0031,0,0,1-.22009.27026c-.02118.02258-.03827.04846-.06018.07043l-.00287.00354c-.02112.02112-.04626.035-.06787.05542-.00891.00842-.01935.01538-.02838.02368a2.972,2.972,0,0,1-.246.20508c-.03882.02881-.07349.06152-.11383.08838-.0318.02136-.0661.03613-.09857.05615a2.95256,2.95256,0,0,1-.26868.1438c-.05078.02454-.09729.05481-.14984.07654-.02484.01038-.05042.01721-.0755.02673a2.97682,2.97682,0,0,1-.364.10828c-.04108.01-.07782.02844-.11963.03674l-.00793.00073-.0307.00464a2.97183,2.97183,0,0,1-.5473.05322l-.00293-.00024-.00293.00024a2.97249,2.97249,0,0,1-.54736-.05322l-.031-.00464-.00659-.00073L28.19922,74.15527A3.00006,3.00006,0,0,1,29.375,68.27148l43.3183,8.66357L16.05957,20.30127a2.99968,2.99968,0,0,1,4.24219-4.24219l56.634,56.634L68.27148,29.375a2.99968,2.99968,0,1,1,5.88281-1.17676L84.7572,81.209l.00348.01709.001.00537.00043.00464a2.99222,2.99222,0,0,1,.03412.33276c.0069.08179.02338.16138.02344.24438v.01318C84.81964,81.90942,84.80316,81.989,84.79626,82.0708Z"/></svg>