<svg xmlns="http://www.w3.org/2000/svg" width="100" height="100" viewBox="0 0 100 100"><title>where</title><path d="M52.508,96.64624l-.00787.01172-.004.0061-.00348.004a2.98968,2.98968,0,0,1-.19733.24231c-.05719.06885-.10651.14246-.17047.20654-.02423.02429-.05359.04272-.07867.06628-.05353.05017-.11072.09229-.16724.13806-.07031.05688-.13489.12036-.21021.171l-.00464.00378c-.06549.0437-.13477.07617-.20227.114-.03888.02173-.07593.04529-.11572.06519-.04529.02295-.09021.04565-.13617.066-.04523.02-.09241.035-.13879.05286a2.971,2.971,0,0,1-.31451.10388c-.02972.00769-.05884.01453-.08875.02136-.04181.00952-.08344.01807-.12592.02588a2.99208,2.99208,0,0,1-.539.05518L50,98.00012l-.00293.00037a2.99208,2.99208,0,0,1-.539-.05518c-.04248-.00781-.08411-.01636-.12592-.02588-.02991-.00684-.059-.01367-.08875-.02136a2.971,2.971,0,0,1-.31451-.10388c-.04639-.01782-.09357-.03284-.13879-.05286-.046-.02039-.09088-.04309-.13617-.066-.03979-.0199-.07684-.04346-.11572-.06519-.0675-.03784-.13678-.07031-.20227-.114l-.00464-.00378c-.07532-.05066-.13989-.11414-.21021-.171-.05652-.04578-.11371-.08789-.16724-.13806-.02509-.02356-.05444-.042-.07867-.06628-.064-.06409-.11328-.1377-.17047-.20654a2.98968,2.98968,0,0,1-.19733-.24231l-.00348-.004-.004-.0061-.00787-.01172L17.50391,51.66406a2.99993,2.99993,0,0,1,4.99219-3.32812L47,85.0918V5a3,3,0,0,1,6,0V85.0918L77.50391,48.33594a2.99993,2.99993,0,1,1,4.99219,3.32813Z"/></svg>