<svg xmlns="http://www.w3.org/2000/svg" width="100" height="100" viewBox="0 0 100 100"><title>where</title><path d="M97.63013,51.41467c-.04413.08228-.08038.168-.13239.24622l-.00165.00317-.00348.004a2.98968,2.98968,0,0,1-.19733.24231c-.05719.06885-.10651.14246-.17047.20654-.02423.02429-.05359.04272-.07867.06628-.05353.05017-.11072.09229-.16724.13806-.07031.05688-.13489.12036-.21021.171l-.00464.00378-45,30a2.99993,2.99993,0,1,1-3.32812-4.99219L85.0918,53H5a3,3,0,0,1,0-6H85.0918L48.33594,22.49609a2.99993,2.99993,0,0,1,3.32813-4.99219L96.64575,47.4917l.01343.009.00488.00317.00464.00378c.0824.0553.1535.12415.2298.18713.07318.0603.15106.11292.219.18079l.00732.00745c.064.06409.11328.1377.17047.20654a2.99816,2.99816,0,0,1,.197.2417l.00378.00464.00165.00317c.052.07825.08826.16394.13239.24622a2.96213,2.96213,0,0,1,.13947.26428l.00726.01587c.03546.08667.053.17676.08.26514l.00031.001c.028.09192.0639.18005.08307.27539l.00238.01392a2.95617,2.95617,0,0,1,.0318.31152c.00793.08716.02466.1731.025.26074L98,50l-.00067.00684c-.00031.08765-.017.17358-.025.26074a2.95617,2.95617,0,0,1-.0318.31152l-.00238.01392c-.01917.09534-.05511.18347-.08307.27539l-.00031.001c-.02692.08838-.04449.17847-.08.26514l-.00726.01587A2.96213,2.96213,0,0,1,97.63013,51.41467Z"/></svg>