<svg xmlns="http://www.w3.org/2000/svg" width="100" height="100" viewBox="0 0 100 100"><title>where</title><path d="M98,50a3.00015,3.00015,0,0,1-3,3H14.9082L51.66406,77.50391a2.99993,2.99993,0,1,1-3.32812,4.99219l-45-30-.00464-.00378c-.07532-.05066-.13989-.11414-.21021-.171-.05652-.04578-.11371-.08789-.16724-.13806-.02509-.02356-.05444-.042-.07867-.06628-.064-.06409-.11328-.1377-.17047-.20654a2.98968,2.98968,0,0,1-.19733-.24231l-.00348-.004-.00165-.00317c-.052-.07825-.08826-.16394-.13239-.24622a2.96213,2.96213,0,0,1-.13947-.26428l-.00726-.01587c-.03546-.08667-.053-.17676-.08-.26514l-.00031-.001c-.028-.09192-.0639-.18005-.08307-.27539l-.00238-.01392a2.95617,2.95617,0,0,1-.0318-.31152c-.00793-.08716-.02466-.1731-.025-.26074L2,50l.00067-.00684c.00031-.08765.017-.17358.025-.26074a2.95617,2.95617,0,0,1,.0318-.31152l.00238-.01392c.01917-.09534.05511-.18347.08307-.27539l.00031-.001c.02692-.08838.04449-.17847.08-.26514l.00726-.01587a2.96213,2.96213,0,0,1,.13947-.26428c.04413-.08228.08038-.168.13239-.24622l.00165-.00317.00378-.00464a2.99816,2.99816,0,0,1,.197-.2417c.05719-.06885.10651-.14246.17047-.20654l.00708-.00732a2.95571,2.95571,0,0,1,.23865-.19678c.07037-.05713.135-.12061.21039-.17126l.00464-.00378.00238-.00159.01923-.01282,44.97839-29.9856a2.99993,2.99993,0,1,1,3.32813,4.99219L14.9082,47H95A3.00015,3.00015,0,0,1,98,50Z"/></svg>