<svg xmlns="http://www.w3.org/2000/svg" width="100" height="100" viewBox="0 0 100 100"><title>where</title><path d="M83.94141,83.94092a2.99891,2.99891,0,0,1-4.24219,0L23.065,27.30664,31.72852,70.625a2.99968,2.99968,0,1,1-5.88281,1.17676L15.24377,18.791l-.00348-.01709-.001-.00537-.00043-.00464a2.99222,2.99222,0,0,1-.03412-.33276c-.0069-.08179-.02338-.16138-.02344-.24438v-.01318c.00006-.083.01654-.1626.02344-.24438a2.99222,2.99222,0,0,1,.03412-.33276l.00043-.00464.00079-.00244c.01825-.0907.05255-.17554.07892-.26343a2.96815,2.96815,0,0,1,.08984-.29053l.0069-.01782c.02856-.06812.07007-.12744.10327-.19263.01-.01953.02075-.03882.03119-.05811.04413-.082.07965-.16724.1319-.24573l.01025-.01428c.04962-.07373.11115-.13623.16669-.20459a2.96082,2.96082,0,0,1,.19714-.239l.00342-.00415.00684-.00562c.04865-.04834.10614-.08557.15784-.13037a2.984,2.984,0,0,1,.28888-.235l.00616-.00452c.07855-.05249.16382-.0885.246-.13281a2.90929,2.90929,0,0,1,.2583-.1377l.00958-.00317a2.93923,2.93923,0,0,1,.33881-.10486c.0719-.02039.14032-.04968.214-.0647l.00684-.00208.00647-.00061a3.00646,3.00646,0,0,1,.35651-.036c.07312-.00549.144-.02063.21808-.02075h.014c.0896,0,.17554.01721.26367.02515a3.04118,3.04118,0,0,1,.31067.03162l.00641.00061.0094.002.01453.00281,53.0083,10.60168A3.00006,3.00006,0,1,1,70.625,31.72852L27.30774,23.06506,83.94141,79.69873A2.99891,2.99891,0,0,1,83.94141,83.94092Z"/></svg>