<svg xmlns="http://www.w3.org/2000/svg" width="100" height="100" viewBox="0 0 100 100"><title>where</title><path d="M83.541,23a3,3,0,0,0,0-6H20a3.01929,3.01929,0,0,0-.58734.0592c-.08936.0177-.17206.05115-.25842.07654a2.95114,2.95114,0,0,0-.30145.09363,2.95209,2.95209,0,0,0-.29285.15417c-.07422.04089-.15167.07324-.223.121a3.01285,3.01285,0,0,0-.8324.8324c-.04755.07117-.08.14844-.12079.22241a2.96933,2.96933,0,0,0-.15442.29333,2.958,2.958,0,0,0-.09369.30188c-.02545.08618-.05872.1687-.07642.25793A3.01083,3.01083,0,0,0,17,20V57.769L7.10547,47.87793a3.00037,3.00037,0,0,0-4.24219,4.24414L17.8562,67.10974c.01654.017.033.03333.04993.04993l29.97278,29.9624a3.00037,3.00037,0,0,0,4.24219-4.24414L23,63.767V27.24219L47.09485,51.337a10.50842,10.50842,0,0,0,9.06805,9.068l23.53534,23.5354a2.99968,2.99968,0,0,0,4.24219-4.24219l-20.835-20.835A10.49013,10.49013,0,1,0,48.63678,44.39453L27.24219,23ZM57.5,45.5A4.5,4.5,0,1,1,53,50,4.50492,4.50492,0,0,1,57.5,45.5Z"/></svg>