<svg xmlns="http://www.w3.org/2000/svg" width="100" height="100" viewBox="0 0 100 100"><title>where</title><path d="M83.541,23a3,3,0,0,0,0-6H20l-.00238.00024a3.022,3.022,0,0,0-.58484.05884c-.08966.01782-.17261.05127-.25916.0769a2.9447,2.9447,0,0,0-.3009.09338,2.98594,2.98594,0,0,0-.28931.15222c-.07568.0415-.15448.07471-.22705.12329a3.01182,3.01182,0,0,0-.45795.374h0l-.00031.00037a3.01336,3.01336,0,0,0-.37292.45642c-.05115.07654-.08636.1593-.12976.23926a2.95824,2.95824,0,0,0-.14575.27686,2.95036,2.95036,0,0,0-.09735.3136c-.024.0824-.056.16125-.073.24646A3.0101,3.0101,0,0,0,17,20.00061V57.769L7.10547,47.87793a3.00037,3.00037,0,0,0-4.24219,4.24414L17.8562,67.10974c.01654.017.033.03333.04993.04993l29.97278,29.9624a3.00037,3.00037,0,0,0,4.24219-4.24414L23,63.767V27.24207L40.76709,45.00879A10.49621,10.49621,0,0,0,54.99066,59.2334l24.70758,24.707a2.99968,2.99968,0,1,0,4.24219-4.24219l-24.70752-24.707a10.51653,10.51653,0,0,0-1.80811-12.416h-.00049a10.51431,10.51431,0,0,0-12.415-1.80847L27.24231,23ZM53.18213,46.81738a4.50766,4.50766,0,0,1,.001,6.364l-.00146.00122-.001.00122a4.50038,4.50038,0,0,1-6.36377-6.36523l.00146-.00122.001-.00122a4.50634,4.50634,0,0,1,6.36279.00122Z"/></svg>