<svg xmlns="http://www.w3.org/2000/svg" width="100" height="100" viewBox="0 0 100 100"><title>where</title><path d="M62,50A10.5,10.5,0,1,0,72.5,39.5,10.5118,10.5118,0,0,0,62,50Zm15,0a4.5,4.5,0,1,1-4.5-4.5A4.50492,4.50492,0,0,1,77,50Zm6.541-27H27.24219L83.94043,79.69824a2.99968,2.99968,0,1,1-4.24219,4.24219L23,27.24219V63.767l29.12109,29.111a3.00037,3.00037,0,0,1-4.24219,4.24414L17.90613,67.15967c-.01691-.0166-.03339-.033-.04993-.04993L2.86328,52.12207a3.00037,3.00037,0,0,1,4.24219-4.24414L17,57.769V20a3.01083,3.01083,0,0,1,.05927-.58752c.0177-.08923.051-.17175.07642-.25793a2.958,2.958,0,0,1,.09369-.30188,2.96933,2.96933,0,0,1,.15442-.29333c.04083-.074.07324-.15125.12079-.22241a3.01285,3.01285,0,0,1,.8324-.8324c.07129-.04773.14874-.08008.223-.121a2.95209,2.95209,0,0,1,.29285-.15417,2.95114,2.95114,0,0,1,.30145-.09363c.08636-.02539.16907-.05884.25842-.07654A3.01929,3.01929,0,0,1,20,17H83.541a3,3,0,0,1,0,6Z"/></svg>