<svg xmlns="http://www.w3.org/2000/svg" width="100" height="100" viewBox="0 0 100 100"><title>where</title><path d="M73,60A13.01474,13.01474,0,0,1,60,73a7.00818,7.00818,0,0,0-7,7V95a3,3,0,0,1-6,0V80A13.01474,13.01474,0,0,1,60,67a7,7,0,0,0,0-14A13.01442,13.01442,0,0,1,47,40V14.9082L34.49609,33.66406a2.99993,2.99993,0,0,1-4.99219-3.32812L47.492,3.35376l.00787-.01172.004-.0061.00378-.00464a2.98752,2.98752,0,0,1,.197-.2417c.05719-.06879.10651-.14246.17047-.20654l.00732-.00745c.06842-.06836.14691-.12146.22064-.18207.07581-.06244.14636-.13092.22815-.18585l.00464-.00378.00238-.00128a2.94484,2.94484,0,0,1,.26044-.14008c.08319-.04431.162-.09528.24963-.13177l.01892-.00836c.06165-.02521.126-.03607.1886-.05695.0332-.011.06683-.02039.10046-.03027.0835-.0246.16309-.05786.24951-.07526l.01819-.003c.08386-.0163.16846-.01685.25287-.02588a3.00523,3.00523,0,0,1,.31714-.03046L50,2l.0094.001c.067.00024.13251.0144.19922.0191a2.969,2.969,0,0,1,.374.03827l.00781.00122c.09259.01849.17822.05322.26752.08008a2.912,2.912,0,0,1,.27924.08478l.01129.00543a2.94938,2.94938,0,0,1,.29163.15381c.07312.0401.1499.07172.21979.118l.00415.0022.00464.00378a3.01164,3.01164,0,0,1,.25946.21167c.06238.05267.12994.09711.18842.15546l.00824.00824c.064.06409.11328.13776.17047.20654a2.99816,2.99816,0,0,1,.197.2417l.00378.00464.004.0061.00787.01172,17.9881,26.98218a2.99993,2.99993,0,1,1-4.99219,3.32813L53,14.9082V40a7.00786,7.00786,0,0,0,7,7A13.01474,13.01474,0,0,1,73,60Z"/></svg>