<svg xmlns="http://www.w3.org/2000/svg" width="100" height="100" viewBox="0 0 100 100"><title>where</title><path d="M97.62952,51.41626c-.044.082-.08026.1673-.13208.2453l-.00134.0025-.00287.0033a3.00545,3.00545,0,0,1-.2052.2522c-.05487.06543-.10156.13593-.16254.197-.02484.0249-.05487.04388-.08051.06793-.05212.049-.108.09-.163.13458-.07147.058-.13733.12238-.21405.17383l-.00385.00317-27,18a2.99993,2.99993,0,1,1-3.32812-4.99219L85.0918,53H60a7.00849,7.00849,0,0,0-7,7,13,13,0,0,1-26,0,7.00849,7.00849,0,0,0-7-7H5a3,3,0,0,1,0-6H20A13.01505,13.01505,0,0,1,33,60a7,7,0,0,0,14,0A13.01505,13.01505,0,0,1,60,47H85.0918L66.33594,34.49609a2.99993,2.99993,0,1,1,3.32813-4.99219L96.64484,47.49109l.01489.00995.00433.00287.00427.00354a2.99625,2.99625,0,0,1,.24023.19562c.0694.05768.14368.10736.20831.17188l.00812.00812c.06464.06476.1145.13916.17224.20868a2.98715,2.98715,0,0,1,.19537.24l.00348.00421.00134.0025c.05347.08044.091.1684.13617.25305.046.08563.09821.16711.13586.25751l.00775.01709c.03284.0802.04852.16364.074.24542l.01025.03394c.02606.08722.06055.17059.07867.261l.00262.0152a2.94167,2.94167,0,0,1,.03119.3056c.00824.08905.02515.17694.02539.2666L98,50l-.00061.00616c-.00024.08966-.01715.17755-.02539.2666a2.94167,2.94167,0,0,1-.03119.3056l-.00256.01508c-.01868.093-.054.17883-.081.26849l-.008.02655c-.02551.08179-.0412.16522-.074.24542l-.00757.01672A2.952,2.952,0,0,1,97.62952,51.41626Z"/></svg>