<svg xmlns="http://www.w3.org/2000/svg" width="100" height="100" viewBox="0 0 100 100"><title>where</title><path d="M69.66406,34.49609a2.99849,2.99849,0,0,1-4.16016-.832L53,14.9082V40A13.01442,13.01442,0,0,1,40,53a7,7,0,0,0,0,14A13.01474,13.01474,0,0,1,53,80V95a3,3,0,0,1-6,0V80a7.00818,7.00818,0,0,0-7-7,13,13,0,0,1,0-26,7.00786,7.00786,0,0,0,7-7V14.9082L34.49609,33.66406a2.99993,2.99993,0,0,1-4.99219-3.32812L47.492,3.35376l.00787-.01172.004-.0061.00378-.00464a2.99816,2.99816,0,0,1,.197-.2417c.05719-.06879.10651-.14246.17047-.20654l.00769-.00775c.066-.06592.14191-.11688.21289-.17566a3.00529,3.00529,0,0,1,.23553-.192l.00464-.00378.00275-.00146c.0813-.05408.17017-.092.25574-.13751.08466-.04529.165-.097.25427-.13422l.01874-.0083c.06049-.02472.12366-.03534.18506-.05585.03369-.01129.06787-.02069.10193-.03076.08417-.0249.16437-.05835.25146-.07587l.01855-.00305c.08282-.01617.16632-.01648.24969-.02551a2.99157,2.99157,0,0,1,.31989-.03076L50,2l.00958.001c.06848.00031.13531.01465.20343.01953a2.95987,2.95987,0,0,1,.36914.03778l.00885.00134c.09338.01868.17975.05377.26984.08093.092.02771.18561.04657.2757.08356l.0127.00592a2.96544,2.96544,0,0,1,.28149.1485c.0766.04163.1568.075.22986.12354l.00348.00183.00464.00378a2.99076,2.99076,0,0,1,.24707.20142c.06689.05591.13892.10388.20135.1662l.00769.00775c.064.06409.11328.13776.17047.20654a2.99816,2.99816,0,0,1,.197.2417l.00378.00464.004.0061.00787.01172,17.9881,26.98218A3.00014,3.00014,0,0,1,69.66406,34.49609Z"/></svg>