<svg xmlns="http://www.w3.org/2000/svg" width="100" height="100" viewBox="0 0 100 100"><title>where</title><path d="M98,50a2.99952,2.99952,0,0,1-3,3H80A13.01474,13.01474,0,0,1,67,40a7,7,0,0,0-14,0A13.01474,13.01474,0,0,1,40,53H14.9082L33.66406,65.50391a2.99993,2.99993,0,1,1-3.32812,4.99219l-27-18-.00385-.00317c-.07672-.05145-.14258-.11578-.21405-.17383-.05505-.04462-.1109-.08563-.163-.13458-.02563-.024-.05566-.043-.08051-.06793-.061-.0611-.10767-.13159-.16254-.197a3.00545,3.00545,0,0,1-.2052-.2522l-.00287-.0033-.00134-.0025c-.05182-.078-.08807-.16333-.13208-.2453a2.952,2.952,0,0,1-.14014-.26562l-.00757-.01672c-.03284-.0802-.04852-.16364-.074-.24542l-.008-.02655c-.027-.08966-.06232-.17554-.081-.26849l-.00256-.01508a2.94167,2.94167,0,0,1-.03119-.3056c-.00824-.08905-.02515-.17694-.02539-.2666L2,50l.00061-.00616c.00024-.08966.01715-.17755.02539-.2666a2.94167,2.94167,0,0,1,.03119-.3056l.00262-.0152c.01813-.09039.05261-.17377.07867-.261l.01025-.03394c.02551-.08179.0412-.16522.074-.24542l.00775-.01709c.03766-.09039.0899-.17187.13586-.25751.04517-.08466.0827-.17261.13617-.25305l.00134-.0025.00348-.00421a2.98715,2.98715,0,0,1,.19537-.24c.05774-.06952.1076-.14392.17224-.20868l.00714-.00732a2.93139,2.93139,0,0,1,.2337-.19281c.072-.05865.13849-.1236.21582-.17548l.00427-.00354.00159-.0011.01953-.01294,26.97888-17.986a2.99993,2.99993,0,1,1,3.32813,4.99219L14.9082,47H40a7.00818,7.00818,0,0,0,7-7,13,13,0,0,1,26,0,7.00818,7.00818,0,0,0,7,7H95A2.99984,2.99984,0,0,1,98,50Z"/></svg>