<svg xmlns="http://www.w3.org/2000/svg" width="100" height="100" viewBox="0 0 100 100"><title>where</title><path d="M70.49609,69.66406,52.50812,96.646l-.00818.01233-.00385.00574-.00317.00366a2.98823,2.98823,0,0,1-.20544.25232c-.05475.06525-.10132.13556-.16217.19653-.0246.02472-.05438.04358-.07983.06744-.05267.04938-.10907.09082-.16467.13586-.071.05768-.13635.1217-.21252.17273l-.00421.00348c-.066.04395-.13574.07672-.20374.11481-.03809.02124-.07422.04425-.1131.06378-.04535.02289-.09033.04578-.13641.06616-.04651.02063-.095.03607-.1427.05432a2.98323,2.98323,0,0,1-.31232.10278c-.02856.00745-.05658.0141-.08533.02069-.04388.01007-.08759.019-.13214.0271A2.99572,2.99572,0,0,1,50.00293,98l-.00134-.00018L50,98l-.00159-.00018L49.99707,98a2.99572,2.99572,0,0,1-.5354-.05426c-.04456-.00812-.08826-.017-.13214-.0271-.02875-.00659-.05676-.01324-.08533-.02069a2.98323,2.98323,0,0,1-.31232-.10278c-.04773-.01825-.09619-.03369-.1427-.05432-.04608-.02039-.09106-.04327-.13641-.06616-.03888-.01953-.075-.04254-.1131-.06378-.068-.03809-.13776-.07086-.20374-.11481l-.00421-.00348c-.07617-.051-.14148-.11505-.21252-.17273-.0556-.045-.112-.08649-.16467-.13586-.02545-.02386-.05524-.04272-.07983-.06744-.06085-.061-.10742-.13129-.16217-.19653a2.98823,2.98823,0,0,1-.20544-.25232l-.00317-.00366-.00385-.00574-.00818-.01233-17.988-26.98193a2.99993,2.99993,0,0,1,4.99219-3.32812L47,85.0918V60A13.01474,13.01474,0,0,1,60,47a7,7,0,0,0,0-14A13.01442,13.01442,0,0,1,47,20V5a3,3,0,0,1,6,0V20a7.00786,7.00786,0,0,0,7,7,13,13,0,0,1,0,26,7.00818,7.00818,0,0,0-7,7V85.0918L65.50391,66.33594a2.99993,2.99993,0,1,1,4.99219,3.32813Z"/></svg>