<svg xmlns="http://www.w3.org/2000/svg" width="100" height="100" viewBox="0 0 100 100"><title>where</title><path d="M97.12109,2.87891a2.99891,2.99891,0,0,0-4.24219,0L65.782,29.97534A25.49547,25.49547,0,0,0,29.97559,65.78223L9.88483,85.873l4.42084-22.10443a3.00006,3.00006,0,0,0-5.88379-1.17578L2.06244,94.39032l-.00281.0141-.00153.00769-.00061.00623c-.01917.09766-.02063.197-.03009.29578-.009.09369-.02679.1853-.02692.28064v.0105c.00012.09534.01788.187.02692.28064.00946.09882.01093.19812.03009.29578l.00061.00623.00116.00391c.01038.05145.031.09912.044.14978a3.04047,3.04047,0,0,0,.11206.37244l.01251.03027c.02032.04907.04993.09308.07275.14093a2.98454,2.98454,0,0,0,.17334.3266c.00983.01532.01685.03168.027.04681.02765.04169.06415.07678.09387.11707a2.99573,2.99573,0,0,0,.22174.27234c.021.0224.0379.048.05963.06976l.00275.0033c.02094.02094.0459.03473.06726.05493.00842.008.01831.01453.02686.02246a2.99181,2.99181,0,0,0,.251.20911c.03754.02777.071.05951.11.08551.03156.02118.06555.036.09772.05585a2.97728,2.97728,0,0,0,.27887.149c.04749.02264.09076.051.13971.07129.0246.01019.04974.01733.07458.02692a2.98419,2.98419,0,0,0,.39215.11627l.00452.00134c.03107.0072.05853.0213.09.02759l.0047.00049.03033.00507a2.96836,2.96836,0,0,0,.54993.054L5,98.00061l.00342.00037a2.96954,2.96954,0,0,0,.55-.054l.03027-.00507.0047-.00049L37.4082,91.57715a2.99968,2.99968,0,1,0-1.17676-5.88281L14.12671,90.11548l20.091-20.091A25.49545,25.49545,0,0,0,70.02417,34.21753L97.12109,7.12109A2.99891,2.99891,0,0,0,97.12109,2.87891ZM63.78857,63.78906A19.45733,19.45733,0,0,1,38.51019,65.732l13.6109-13.6109a2.99968,2.99968,0,0,0-4.24219-4.24219L34.26807,61.48975a19.48765,19.48765,0,1,1,29.52051,2.29932Z"/></svg>