<svg xmlns="http://www.w3.org/2000/svg" width="100" height="100" viewBox="0 0 100 100"><title>where</title><path d="M97.99951,5.00525v-.0105c-.00012-.09534-.01788-.187-.02692-.28064-.00946-.09882-.01093-.19812-.03009-.29578l-.00061-.00623-.0011-.0036c-.01923-.09534-.05518-.18475-.08337-.27716-.02789-.09222-.04822-.186-.08527-.27576L97.7655,3.838c-.0304-.07251-.07434-.1358-.10992-.205-.0105-.02032-.02148-.04028-.03241-.06036-.04193-.077-.07489-.15741-.12408-.23126L97.489,3.32715c-.0517-.07672-.1156-.14221-.17377-.21338a2.98419,2.98419,0,0,0-.19141-.23157l-.00275-.0033L97.116,2.87469c-.05389-.05353-.11719-.09546-.1748-.14465a2.96731,2.96731,0,0,0-.27155-.22113l-.00983-.007c-.0769-.05127-.1604-.086-.24078-.12939a2.92647,2.92647,0,0,0-.25885-.13867l-.01483-.00543a2.96527,2.96527,0,0,0-.29468-.09113c-.08673-.02588-.17023-.05994-.25952-.07788l-.00275-.00085-.00488-.00049a3.00858,3.00858,0,0,0-.33124-.03387c-.08221-.007-.16211-.0235-.24554-.02362l-.01447.00018c-.06378.00012-.12494.01379-.188.01794a2.99306,2.99306,0,0,0-.38855.03949l-.004.00037-.01068.00214-.00549.0011L62.5918,8.42285a2.99968,2.99968,0,1,0,1.17676,5.88281L85.87317,9.88452,65.782,29.97534A25.49547,25.49547,0,0,0,29.97559,65.78223L2.87891,92.87891a2.99968,2.99968,0,1,0,4.24219,4.24219L34.21771,70.02448A25.49545,25.49545,0,0,0,70.02417,34.21753l20.091-20.09064L85.69434,36.23145a3.00006,3.00006,0,1,0,5.88379,1.17578L97.93756,5.60968l.00281-.0141.00153-.00769.00061-.00623c.01917-.09766.02063-.197.03009-.29578C97.98163,5.1922,97.99939,5.10059,97.99951,5.00525ZM63.78857,63.78906A19.45733,19.45733,0,0,1,38.51019,65.732l13.6109-13.6109a2.99968,2.99968,0,0,0-4.24219-4.24219L34.26807,61.48975a19.48765,19.48765,0,1,1,29.52051,2.29932Z"/></svg>