<svg xmlns="http://www.w3.org/2000/svg" width="100" height="100" viewBox="0 0 100 100"><title>where</title><path d="M47.99609,69.66406,30.009,96.64465l-.00995.01489-.003.00452-.00287.0033a2.9799,2.9799,0,0,1-.20392.25061c-.05524.06592-.10236.137-.16382.19861-.02484.0249-.05487.04388-.08051.06793-.05212.049-.108.09-.163.13458-.07147.058-.13733.12238-.21405.17383l-.00385.00317c-.0658.04382-.13538.07648-.20319.11444-.03839.02148-.075.04474-.11426.06439-.04468.02252-.08905.04517-.1344.06531-.04785.02118-.09772.03711-.14679.05585a2.98445,2.98445,0,0,1-.30914.10168c-.02863.00745-.0567.01422-.08551.02081-.04419.01013-.08826.0191-.13318.02728A2.99422,2.99422,0,0,1,27.50293,98l-.00134-.00018L27.5,98l-.00159-.00018L27.49707,98a2.99422,2.99422,0,0,1-.53467-.05414c-.04492-.00818-.089-.01715-.13318-.02728-.02881-.00659-.05688-.01337-.08551-.02081a2.98445,2.98445,0,0,1-.30914-.10168c-.04907-.01874-.09894-.03467-.14679-.05585-.04535-.02014-.08972-.04279-.1344-.06531-.03925-.01965-.07587-.04291-.11426-.06439-.06781-.038-.13739-.07062-.20319-.11444l-.00385-.00317c-.07672-.05145-.14258-.11578-.21405-.17383-.05505-.04462-.1109-.08563-.163-.13458-.02563-.024-.05566-.043-.08051-.06793-.06146-.06158-.10858-.13269-.16382-.19861a2.9799,2.9799,0,0,1-.20392-.25061l-.00287-.0033-.003-.00452-.00995-.01489L7.00391,69.66406a2.99993,2.99993,0,0,1,4.99219-3.32812L24.5,85.0918V5a3,3,0,0,1,6,0V85.0918L43.00391,66.33594a2.99993,2.99993,0,1,1,4.99219,3.32813Zm45-39.32812L75.009,3.35535l-.00995-.01489-.003-.00452-.00317-.00385a2.98057,2.98057,0,0,0-.20361-.25006c-.05524-.06592-.10236-.137-.16382-.19861l-.00873-.00879c-.0658-.06567-.14142-.11639-.2121-.17493a3.00726,3.00726,0,0,0-.23676-.19263l-.00385-.00317L74.1629,2.5033a2.94479,2.94479,0,0,0-.27155-.1463c-.07971-.04211-.155-.09113-.23871-.126l-.02094-.00922c-.06116-.025-.12488-.03571-.187-.0564-.04474-.01489-.08978-.02808-.13513-.04083-.07184-.0202-.13965-.04956-.21356-.06445l-.01929-.00342c-.097-.019-.19458-.02063-.29218-.02991-.09357-.009-.186-.02612-.28033-.02631L72.5,2l-.00446.00043c-.09436.00018-.187.01727-.28058.02631-.0976.00928-.19519.01093-.29211.02991l-.01947.00348c-.06952.014-.13312.04187-.20081.06061-.04962.01373-.09888.02838-.14777.04462-.06207.02069-.12573.03137-.18683.0564l-.02136.00946c-.08081.03369-.1532.08124-.23022.12158a2.95921,2.95921,0,0,0-.27966.1507l-.00079.00043-.00385.00317a3.00341,3.00341,0,0,0-.23322.1897c-.072.05939-.14874.111-.21564.17786l-.00873.00879c-.06146.06158-.10858.13269-.16382.19861a2.98057,2.98057,0,0,0-.20361.25006l-.00317.00385-.003.00452-.00995.01489L52.00391,30.33594a2.99993,2.99993,0,1,0,4.99219,3.32813L69.5,14.9082V95a3,3,0,0,0,6,0V14.9082L88.00391,33.66406a2.99993,2.99993,0,0,0,4.99219-3.32812Z"/></svg>