<svg xmlns="http://www.w3.org/2000/svg" width="100" height="100" viewBox="0 0 100 100"><title>where</title><path d="M97.63116,73.91315c-.04449.08313-.08124.16956-.13385.2486l-.00122.00232-.00287.0033a2.9799,2.9799,0,0,1-.20392.25061c-.05524.06592-.10236.137-.16382.19861-.02484.0249-.05487.04388-.08051.06793-.05212.049-.108.09-.163.13458-.07147.058-.13733.12238-.21405.17383l-.00385.00317-27,18a2.99993,2.99993,0,1,1-3.32812-4.99219L85.0918,75.5H5a3,3,0,0,1,0-6H85.0918L66.33594,56.99609a2.99993,2.99993,0,1,1,3.32813-4.99219L96.64575,69.9917l.01318.00879.00513.00342.00385.00317a3,3,0,0,1,.26178.21326c.06165.05219.12866.09613.18646.15381l.00934.00928c.06146.06158.10858.13269.16382.19861a2.98057,2.98057,0,0,1,.20361.25006l.00317.00385.00122.00232c.05261.079.08936.16547.13385.2486a2.94739,2.94739,0,0,1,.13837.26221l.00793.01758c.03052.07458.04468.15234.06885.22833l.01459.04834c.02631.08783.061.17188.07928.26294l.00269.01581a2.94111,2.94111,0,0,1,.03076.30121c.00842.09033.02551.17944.02576.27045L98,72.5l-.00061.00629c-.00024.091-.01733.18011-.02576.27045a2.94111,2.94111,0,0,1-.03076.30121l-.00269.01581c-.01825.09106-.053.17511-.07928.26294l-.01459.04834c-.02417.076-.03833.15375-.06885.22833l-.00793.01758A2.94739,2.94739,0,0,1,97.63116,73.91315ZM2.02637,27.77673a2.94111,2.94111,0,0,0,.03076.30121l.00269.01581c.01825.09106.053.17511.07928.26294l.01459.04834c.02417.076.03833.15375.06885.22833l.00793.01758a2.9474,2.9474,0,0,0,.13837.26221c.04449.08313.08124.16956.13385.2486l.00122.00232.00287.0033a2.9799,2.9799,0,0,0,.20392.25061c.05524.06592.10236.137.16382.19861.02484.0249.05487.04388.08051.06793.05212.049.108.09.163.13458.07147.058.13733.12238.21405.17383l.00385.00317,27,18a2.99993,2.99993,0,0,0,3.32813-4.99219L14.9082,30.5H95a3,3,0,0,0,0-6H14.9082L33.66406,11.99609a2.99993,2.99993,0,0,0-3.32812-4.99219L3.35614,24.99042l-.01721.01147-.003.002-.00385.00317a2.99492,2.99492,0,0,0-.24927.20288c-.06616.05536-.13739.10272-.19916.16437l-.00916.00909c-.06146.06158-.10858.13269-.16382.19861a2.98057,2.98057,0,0,0-.20361.25006l-.00317.00385-.00122.00232c-.05261.079-.08936.16547-.13385.2486a2.9474,2.9474,0,0,0-.13837.26221l-.00793.01758c-.03052.07458-.04468.15234-.06885.22833l-.01459.04834c-.02631.08783-.061.17188-.07928.26294l-.00269.01581a2.94111,2.94111,0,0,0-.03076.30121c-.00842.09033-.02551.17944-.02576.27045L2,27.5l.00061.00629C2.00085,27.59729,2.01794,27.6864,2.02637,27.77673Z"/></svg>