<svg xmlns="http://www.w3.org/2000/svg" width="100" height="100" viewBox="0 0 100 100"><title>where</title><path d="M75.009,96.64465l-.00995.01489-.003.00452-.00287.0033a2.9799,2.9799,0,0,1-.20392.25061c-.05524.06592-.10236.137-.16382.19861-.02484.0249-.05487.04388-.08051.06793-.05212.049-.108.09-.163.13458-.07147.058-.13733.12238-.21405.17383l-.00385.00317c-.0658.04382-.13538.07648-.20319.11444-.03839.02148-.075.04474-.11426.06439-.04468.02252-.08905.04517-.1344.06531-.04785.02118-.09772.03711-.14679.05585a2.98445,2.98445,0,0,1-.30914.10168c-.02863.00745-.0567.01422-.08551.02081-.04419.01013-.08826.0191-.13318.02728A2.99422,2.99422,0,0,1,72.50293,98l-.00134-.00018L72.5,98l-.00159-.00018L72.49707,98a2.99422,2.99422,0,0,1-.53467-.05414c-.04492-.00818-.089-.01715-.13318-.02728-.02881-.00659-.05688-.01337-.08551-.02081a2.98445,2.98445,0,0,1-.30914-.10168c-.04907-.01874-.09894-.03467-.14679-.05585-.04535-.02014-.08972-.04279-.1344-.06531-.03925-.01965-.07587-.04291-.11426-.06439-.06781-.038-.13739-.07062-.20319-.11444l-.00385-.00317c-.07672-.05145-.14258-.11578-.21405-.17383-.05505-.04462-.1109-.08563-.163-.13458-.02563-.024-.05566-.043-.08051-.06793-.06146-.06158-.10858-.13269-.16382-.19861a2.9799,2.9799,0,0,1-.20392-.25061l-.00287-.0033-.003-.00452-.00995-.01489L52.00391,69.66406a2.99993,2.99993,0,0,1,4.99219-3.32812L69.5,85.0918V5a3,3,0,0,1,6,0V85.0918L88.00391,66.33594a2.99993,2.99993,0,1,1,4.99219,3.32813Zm-45-93.28931-.00995-.01489-.003-.00452-.00317-.00385a2.98057,2.98057,0,0,0-.20361-.25006c-.05524-.06592-.10236-.137-.16382-.19861l-.00964-.00952c-.05756-.05737-.12408-.101-.18542-.153a3.00579,3.00579,0,0,0-.26251-.21387l-.00385-.00317-.00275-.00146c-.079-.05249-.16541-.08923-.24841-.13373a2.9407,2.9407,0,0,0-.26184-.13824l-.01843-.00824c-.07129-.02917-.14539-.04242-.2179-.0658-.02655-.00854-.05322-.01636-.08-.02411-.08038-.02344-.15674-.05566-.23975-.07239L28.077,2.0567a2.95751,2.95751,0,0,0-.29761-.0304c-.092-.00873-.18286-.0257-.27551-.02594L27.5,2l-.00458.00049c-.09351.00018-.18518.01715-.278.026a2.96569,2.96569,0,0,0-.29523.03015l-.01935.00354c-.06451.013-.12347.03918-.1864.05627q-.08231.02225-.16309.04919c-.06158.02057-.12494.03125-.18555.056l-.02222.00983c-.07538.03143-.1427.07623-.21478.11346a2.96853,2.96853,0,0,0-.29907.16229c-.07556.05066-.14038.11426-.21088.17139a2.91588,2.91588,0,0,0-.23853.19678l-.00781.008c-.06146.06158-.10858.13269-.16382.19861a2.98057,2.98057,0,0,0-.20361.25006l-.00317.00385-.003.00452-.00995.01489L7.00391,30.33594a2.99993,2.99993,0,1,0,4.99219,3.32813L24.5,14.9082V95a3,3,0,0,0,6,0V14.9082L43.00391,33.66406a2.99993,2.99993,0,0,0,4.99219-3.32812Z"/></svg>