<svg xmlns="http://www.w3.org/2000/svg" width="100" height="100" viewBox="0 0 100 100"><title>where</title><path d="M98,72.5a2.99952,2.99952,0,0,1-3,3H14.9082L33.66406,88.00391a2.99993,2.99993,0,1,1-3.32812,4.99219l-27-18-.00385-.00317c-.07672-.05145-.14258-.11578-.21405-.17383-.05505-.04462-.1109-.08563-.163-.13458-.02563-.024-.05566-.043-.08051-.06793-.06146-.06158-.10858-.13269-.16382-.19861a2.9799,2.9799,0,0,1-.20392-.25061l-.00287-.0033-.00122-.00232c-.05261-.079-.08936-.16547-.13385-.2486a2.9474,2.9474,0,0,1-.13837-.26221l-.00793-.01758c-.03052-.07458-.04468-.15234-.06885-.22833l-.01459-.04834c-.02631-.08783-.061-.17187-.07928-.26294l-.00269-.01581a2.94111,2.94111,0,0,1-.03076-.30121c-.00842-.09033-.02551-.17944-.02576-.27045L2,72.5l.00061-.00629c.00024-.091.01733-.18011.02576-.27045a2.94111,2.94111,0,0,1,.03076-.30121l.00269-.01581c.01825-.09106.053-.17511.07928-.26294l.01459-.04834c.02417-.076.03833-.15375.06885-.22833l.00793-.01758a2.9474,2.9474,0,0,1,.13837-.26221c.04449-.08313.08124-.16956.13385-.2486l.00122-.00232.00317-.00385a2.98057,2.98057,0,0,1,.20361-.25006c.05524-.06592.10236-.137.16382-.19861l.00934-.00928c.05884-.05865.12671-.10333.18951-.15631a3.00248,3.00248,0,0,1,.25873-.21075l.00385-.00317.00446-.003.01434-.00952,26.9812-17.98749a2.99993,2.99993,0,0,1,3.32813,4.99219L14.9082,69.5H95A2.99952,2.99952,0,0,1,98,72.5Zm0-45-.00061-.00629c-.00024-.091-.01733-.18011-.02576-.27045a2.94111,2.94111,0,0,0-.03076-.30121l-.00269-.01581c-.01825-.09106-.053-.17511-.07928-.26294l-.01459-.04834c-.02417-.076-.03833-.15375-.06885-.22833l-.00793-.01758a2.94739,2.94739,0,0,0-.13837-.26221c-.04449-.08313-.08124-.16956-.13385-.2486l-.00122-.00232-.00317-.00385a2.98057,2.98057,0,0,0-.20361-.25006c-.05524-.06592-.10236-.137-.16382-.19861l-.00934-.00928c-.059-.0589-.1272-.10376-.19019-.15692a3.007,3.007,0,0,0-.25806-.21014l-.00385-.00317-.00433-.00287-.01489-.00995L69.66406,7.00391a2.99993,2.99993,0,0,0-3.32812,4.99219L85.0918,24.5H5a3,3,0,0,0,0,6H85.0918L66.33594,43.00391a2.99993,2.99993,0,1,0,3.32813,4.99219l27-18,.00385-.00317c.07672-.05145.14258-.11578.21405-.17383.05505-.04462.1109-.08563.163-.13458.02563-.024.05566-.043.08051-.06793.06146-.06158.10858-.13269.16382-.19861a2.9799,2.9799,0,0,0,.20392-.25061l.00287-.0033.00122-.00232c.05261-.079.08936-.16547.13385-.2486a2.94739,2.94739,0,0,0,.13837-.26221l.00793-.01758c.03052-.07458.04468-.15234.06885-.22833l.01459-.04834c.02631-.08783.061-.17187.07928-.26294l.00269-.01581a2.94111,2.94111,0,0,0,.03076-.30121c.00842-.09033.02551-.17944.02576-.27045Z"/></svg>