<svg xmlns="http://www.w3.org/2000/svg" width="100" height="100" viewBox="0 0 100 100"><title>where</title><path d="M98,50a2.99984,2.99984,0,0,1-3,3H35a2.99984,2.99984,0,0,1-3-3l.001-.01031L32,49.97949a2.9954,2.9954,0,0,1,2.98975-3.00977A2.9411,2.9411,0,0,1,35.30615,47H95A2.99984,2.99984,0,0,1,98,50ZM11.50977,37.28027A2.99778,2.99778,0,0,0,7.27,41.51953a2.99361,2.99361,0,0,0,4.23975,0A2.9989,2.9989,0,0,0,11.50977,37.28027ZM22.98,35a2.99512,2.99512,0,1,0-2.99023,3A2.99609,2.99609,0,0,0,22.98,35Zm5.54,27.71a3.0016,3.0016,0,1,0-.01025-4.25A2.98171,2.98171,0,0,0,28.52,62.71ZM32.71,37.25a3.00486,3.00486,0,1,0,.00977,4.24023A2.99129,2.99129,0,0,0,32.71,37.25ZM5,53.05957h.00977A2.99578,2.99578,0,0,0,8,50.0498V50a3,3,0,0,0-6,0v.06934A2.99994,2.99994,0,0,0,5,53.05957ZM20.0498,68h.01025a3.00516,3.00516,0,1,0-.01025,0Zm-12.73-5.23047a2.99814,2.99814,0,1,0-.02-4.23926A2.98338,2.98338,0,0,0,7.31982,62.76953ZM5,23H64.70013A2.929,2.929,0,0,0,65,23.03027h.00977A3.00323,3.00323,0,0,0,68,20.01953l-.001-.0097L68,20a2.99984,2.99984,0,0,0-3-3H5a3,3,0,0,0,0,6Zm62.27979,5.50977a2.99536,2.99536,0,0,0,2.12988,5.11035,2.959,2.959,0,0,0,2.12012-.87988,2.99831,2.99831,0,1,0-4.25-4.23047Zm27.71-11.57031A2.98971,2.98971,0,0,0,92,19.9502V20a3,3,0,0,0,6,0v-.08008A3.001,3.001,0,0,0,94.98975,16.93945ZM69.36963,12.41992A2.959,2.959,0,0,0,71.48975,11.54a3.00544,3.00544,0,1,0-2.12012.87988Zm21.2002-.07031A2.99977,2.99977,0,1,0,88.46,11.47949,2.966,2.966,0,0,0,90.56982,12.34961ZM80.00977,32A3,3,0,1,0,83.02,35,3.002,3.002,0,0,0,80.00977,32Zm8.48.71973a2.9983,2.9983,0,1,0,0-4.24023A2.9753,2.9753,0,0,0,88.48975,32.71973ZM79.94971,8H79.96a3.00516,3.00516,0,1,0-.01025,0ZM95,77H65.60193A3.00194,3.00194,0,0,0,62,79.9502V80a2.99578,2.99578,0,0,0,3,3H95a3,3,0,0,0,0-6ZM60.56982,72.34961a2.99463,2.99463,0,1,0-2.12012-.87012A2.99744,2.99744,0,0,0,60.56982,72.34961ZM50.00977,92A3,3,0,1,0,53.02,95,3.01111,3.01111,0,0,0,50.00977,92Zm-12.73-3.49023a2.99536,2.99536,0,0,0,2.12988,5.11035,2.959,2.959,0,0,0,2.12012-.87988,2.99831,2.99831,0,1,0-4.25-4.23047ZM38,80.01953l-.001-.0097L38,80a2.99984,2.99984,0,0,0-3-3H5a3,3,0,0,0,0,6H34.70831a2.96,2.96,0,0,0,.30145.03027A2.99665,2.99665,0,0,0,38,80.01953Zm20.48975,8.46a3,3,0,0,0,2.12012,5.12012A2.959,2.959,0,0,0,62.73,92.71973a2.9983,2.9983,0,0,0-4.24023-4.24023ZM37.25,71.5498a3.0016,3.0016,0,1,0-.01025-4.24023V67.2998A3.01145,3.01145,0,0,0,37.25,71.5498ZM49.94971,68H49.96a3.00516,3.00516,0,1,0-.01025,0Z"/></svg>