<svg xmlns="http://www.w3.org/2000/svg" width="100" height="100" viewBox="0 0 100 100"><title>where</title><path d="M55.72949,47.26563v.01013c-.00012.09534-.01788.187-.02692.28064-.0094.09863-.0108.19781-.03.29529l-.00073.00769-.00177.00873-.002.01031L49.30762,79.67871A3.00016,3.00016,0,0,1,43.42383,78.502l4.421-22.10413L7.12109,97.12109a2.99968,2.99968,0,0,1-4.24219-4.24219L43.60321,52.155,21.49854,56.57617a2.99968,2.99968,0,1,1-1.17676-5.88281l31.79694-6.35968.02148-.00427.0014-.00031.005-.00049c.097-.01917.19568-.02087.29382-.03033.09515-.00928.18829-.02734.28516-.02734l.00836-.00006a2.92108,2.92108,0,0,1,.35211.03375c.0752.009.15106.00861.22552.02325a2.97654,2.97654,0,0,1,.36035.10681c.0658.02179.13354.03479.198.06122l.0274.01074c.02148.009.03955.02307.06073.03259a3.00433,3.00433,0,0,1,.30621.16431c.03943.02362.08209.03912.12073.06476l.02136.01477c.06171.04163.11359.09412.17169.14a2.99736,2.99736,0,0,1,.27252.226l.00049.00043.00287.00354c.04919.04944.08771.10754.13324.16016a2.96144,2.96144,0,0,1,.23425.28766l.00739.01086c.0484.07275.08093.15192.12231.22766a2.93329,2.93329,0,0,1,.14508.27075l.00574.01569c.038.09229.05914.18866.08765.28357.02722.09.06238.1767.08112.26947l.00116.00385.00061.00623a3.0054,3.0054,0,0,1,.03076.30255C55.71191,47.08295,55.72943,47.17249,55.72949,47.26563ZM98,12.5A10.5,10.5,0,1,1,87.5,2,10.5118,10.5118,0,0,1,98,12.5Zm-6,0A4.5,4.5,0,1,0,87.5,17,4.50492,4.50492,0,0,0,92,12.5Z"/></svg>