<svg xmlns="http://www.w3.org/2000/svg" width="100" height="100" viewBox="0 0 100 100"><title>where</title><path d="M38.18213,42.57568,77.87891,2.87891a2.99968,2.99968,0,0,1,4.24219,4.24219L42.42432,46.81787a2.99968,2.99968,0,0,1-4.24219-4.24219ZM82.99951,95.00507v-.01013c-.00006-.09412-.01776-.18463-.02655-.27722a2.98969,2.98969,0,0,0-.0304-.29907l-.00067-.007-.00171-.00848-.00226-.01123L72.33545,41.37842a3.00016,3.00016,0,1,0-5.88379,1.17676l8.66339,43.31769L42.42432,53.18213a2.99968,2.99968,0,0,0-4.24219,4.24219L70.87286,90.11505,27.55518,81.45166a3.00016,3.00016,0,1,0-1.17676,5.88379l53.0332,10.60645.00708.00073.03082.00458a2.96974,2.96974,0,0,0,.54706.05328L80,98.00012l.00342.00037a2.97091,2.97091,0,0,0,.54712-.05328l.03076-.00458.00708-.00073c.04041-.00812.07593-.02588.1156-.03552a2.98985,2.98985,0,0,0,.36829-.10931c.02545-.00977.05133-.01685.07654-.02728.05151-.0213.09711-.05115.14691-.07513a2.99017,2.99017,0,0,0,.27045-.14459c.03284-.0202.06757-.03534.09979-.05695.03949-.02643.07355-.05865.11157-.08685a3.005,3.005,0,0,0,.24921-.2077l.02087-.0174c.02344-.022.0506-.03717.07349-.06006l.003-.00372c.02148-.02161.03827-.04687.059-.06909a2.9845,2.9845,0,0,0,.22449-.27563c.02893-.03931.06445-.07336.09137-.114.00989-.01489.01691-.03088.02655-.0459a2.97977,2.97977,0,0,0,.17786-.335c.02148-.04541.0495-.087.06879-.13354l.01215-.02893a3.03515,3.03515,0,0,0,.11682-.38812c.01141-.04553.03015-.08838.03949-.13452l.00128-.00427.00067-.007a2.98969,2.98969,0,0,0,.0304-.29907C82.98175,95.1897,82.99945,95.09918,82.99951,95.00507ZM23,50a3.00015,3.00015,0,0,0-3-3H12.5a3,3,0,0,0,0,6H20A3.00015,3.00015,0,0,0,23,50ZM35,38a3.00015,3.00015,0,0,0,3-3V27.5a3,3,0,0,0-6,0V35A3.00015,3.00015,0,0,0,35,38ZM32,65v7.5a3,3,0,0,0,6,0V65a3,3,0,0,0-6,0ZM27.50391,46.74609a2.99968,2.99968,0,0,0,4.24219-4.24219L21.21191,31.96973a2.99968,2.99968,0,1,0-4.24219,4.24219Zm4.314,6.436a2.99891,2.99891,0,0,0-4.24219,0L16.96924,63.78857a2.99968,2.99968,0,1,0,4.24219,4.24219L31.81787,57.42432A2.99891,2.99891,0,0,0,31.81787,53.18213Z"/></svg>