<svg xmlns="http://www.w3.org/2000/svg" width="100" height="100" viewBox="0 0 100 100"><title>where</title><path d="M61.81738,57.42432,22.12109,97.12109a2.99968,2.99968,0,0,1-4.24219-4.24219L57.5752,53.18213a2.99968,2.99968,0,0,1,4.24219,4.24219ZM17.024,5.251a2.99372,2.99372,0,0,0,.03412.33276l.00043.00458.001.00531.00348.01721L27.665,58.62158a2.99968,2.99968,0,1,0,5.88281-1.17676L24.8844,14.12665,57.5752,46.81787a2.99968,2.99968,0,0,0,4.24219-4.24219L29.127,9.88483l43.31836,8.66351a3.00006,3.00006,0,0,0,1.17578-5.88379L20.61389,2.06329l-.02246-.00446-.00354-.00073-.00641-.00061c-.0838-.01648-.16907-.01672-.25372-.02606a2.92263,2.92263,0,0,0-.32361-.03107l-.01117.00031c-.07037.00012-.13776.01483-.20728.0199a2.99561,2.99561,0,0,0-.36707.03693l-.00653.00061-.00732.00226c-.068.01385-.13116.04132-.19769.05981a2.95692,2.95692,0,0,0-.35577.11011l-.0069.00214a2.90855,2.90855,0,0,0-.25983.13824c-.0827.04449-.16827.081-.24731.13379l-.00305.0025a2.95939,2.95939,0,0,0-.31189.25378c-.044.03876-.09369.07025-.13538.11157l-.00806.00659-.00342.00415a3.0005,3.0005,0,0,0-.212.25714c-.04987.06244-.10608.11877-.15106.18549l-.011.01526c-.05225.07849-.08777.1637-.1319.24573-.0141.02625-.02887.05194-.04218.07861-.02917.05835-.06665.1109-.0921.17163l-.00708.01825a2.97443,2.97443,0,0,0-.08984.29059c-.02637.088-.06067.17273-.07892.26337l-.00079.0025-.00043.00458A2.99372,2.99372,0,0,0,17.024,4.749c-.0069.08179-.02338.16138-.02344.24438v.01331C17.00067,5.08966,17.01715,5.16925,17.024,5.251ZM87.5,47H80a3,3,0,0,0,0,6h7.5a3,3,0,0,0,0-6ZM65,62a2.99984,2.99984,0,0,0-3,3v7.5a3,3,0,0,0,6,0V65A2.99984,2.99984,0,0,0,65,62Zm0-37.5a2.99984,2.99984,0,0,0-3,3V35a3,3,0,0,0,6,0V27.5A2.99984,2.99984,0,0,0,65,24.5Zm7.49609,28.75391a2.99968,2.99968,0,0,0-4.24219,4.24219L78.78809,68.03027a2.99968,2.99968,0,0,0,4.24219-4.24219Zm-4.31348-6.436a2.99891,2.99891,0,0,0,4.24219,0L83.03125,36.21143a2.99968,2.99968,0,0,0-4.24219-4.24219L68.18262,42.57568A2.99891,2.99891,0,0,0,68.18262,46.81787Z"/></svg>