<svg xmlns="http://www.w3.org/2000/svg" width="100" height="100" viewBox="0 0 100 100"><title>where</title><path d="M46.81738,42.42432,7.12109,82.12109a2.99968,2.99968,0,0,1-4.24219-4.24219L42.5752,38.18213a2.99968,2.99968,0,0,1,4.24219,4.24219Zm51.182,37.58234v-.01331c-.00006-.083-.01654-.1626-.02344-.24438a2.99372,2.99372,0,0,0-.03412-.33276l-.00043-.00458-.001-.00531-.00348-.01721L87.335,26.37842a2.99968,2.99968,0,1,0-5.88281,1.17676L90.1156,70.87335,57.4248,38.18213a2.99968,2.99968,0,0,0-4.24219,4.24219L85.873,75.11517,42.55469,66.45166a3.00006,3.00006,0,0,0-1.17578,5.88379l53.0332,10.60645.00659.00067.031.00464a2.97251,2.97251,0,0,0,.54736.05328L95,83.00018l.00293.00031a2.97183,2.97183,0,0,0,.5473-.05322l.03119-.0047.00647-.00067c.03979-.00793.07471-.02545.11377-.03491a2.99241,2.99241,0,0,0,.37079-.11c.02545-.00977.05121-.01685.07642-.02728.05084-.02106.09576-.0506.145-.07422a2.9896,2.9896,0,0,0,.27258-.14563c.03278-.02014.06726-.03528.09943-.05682.03925-.02625.07306-.05829.11084-.08624a3.01417,3.01417,0,0,0,.25-.20837l.01233-.01025c.02618-.02441.05652-.0415.082-.067l.00342-.00415c.02136-.02148.0379-.04681.05859-.06885a2.98808,2.98808,0,0,0,.2226-.27325c.02942-.03992.06549-.07458.0929-.11578.01038-.01562.01776-.03223.02777-.048a2.98322,2.98322,0,0,0,.17291-.326c.02271-.04767.05231-.09137.07257-.14026l.01306-.03168a3.03469,3.03469,0,0,0,.11-.36652c.01361-.05255.03491-.10211.04565-.15558l.00079-.00269.00043-.00458A2.99372,2.99372,0,0,0,97.976,80.251C97.98285,80.16925,97.99933,80.08966,97.99939,80.00665ZM50,23a2.99984,2.99984,0,0,0,3-3V12.5a3,3,0,0,0-6,0V20A2.99984,2.99984,0,0,0,50,23ZM27.5,38H35a3,3,0,0,0,0-6H27.5a3,3,0,0,0,0,6ZM62,35a2.99984,2.99984,0,0,0,3,3h7.5a3,3,0,0,0,0-6H65A2.99984,2.99984,0,0,0,62,35ZM42.50391,31.74609a2.99968,2.99968,0,0,0,4.24219-4.24219L36.21191,16.96973a2.99968,2.99968,0,1,0-4.24219,4.24219Zm10.67871.07178a2.99891,2.99891,0,0,0,4.24219,0L68.03125,21.21143a2.99968,2.99968,0,0,0-4.24219-4.24219L53.18262,27.57568A2.99891,2.99891,0,0,0,53.18262,31.81787Z"/></svg>