<svg xmlns="http://www.w3.org/2000/svg" width="100" height="100" viewBox="0 0 100 100"><title>where</title><path d="M97.12109,82.12109a2.99891,2.99891,0,0,1-4.24219,0L53.18262,42.42432a2.99968,2.99968,0,0,1,4.24219-4.24219L97.12109,77.87891A2.99891,2.99891,0,0,1,97.12109,82.12109ZM57.44531,66.45166,14.127,75.11517,46.81738,42.42432a2.99968,2.99968,0,0,0-4.24219-4.24219L9.8844,70.87335l8.66345-43.31818A2.99968,2.99968,0,1,0,12.665,26.37842L2.06311,79.3891l-.00348.01721-.001.00531-.00043.00458A2.99371,2.99371,0,0,0,2.024,79.749c-.0069.08179-.02338.16138-.02344.24438v.01331c.00006.083.01654.1626.02344.24438a2.99371,2.99371,0,0,0,.03412.33276l.00043.00458.00079.00269c.01068.05322.03192.10254.04547.15485a3.04084,3.04084,0,0,0,.11035.36755l.01294.03137c.02.04822.04913.09137.07153.13837a2.98089,2.98089,0,0,0,.17426.32849c.00989.0155.01721.032.02747.04736.02692.04053.06238.07452.09125.11371a2.99051,2.99051,0,0,0,.2251.27637c.02039.02179.03668.04669.05774.06781l.00342.00415c.02539.02539.05548.0423.08154.06659l.01117.00934a2.99,2.99,0,0,0,.25275.21057c.03748.02771.071.05945.10992.08551.03174.02124.06586.03619.09821.05615a3.00644,3.00644,0,0,0,.27472.14679c.04889.02338.09351.05267.14392.07361.02509.01038.05072.01746.076.02716a3.00062,3.00062,0,0,0,.37177.11029c.03888.0094.07361.02686.11322.03479l.00659.00067.031.00464a2.97251,2.97251,0,0,0,.54736.05328L5,83.00018l.00293.00031a2.97183,2.97183,0,0,0,.5473-.05322l.03119-.0047.00647-.00067,53.0332-10.60645a3.00006,3.00006,0,0,0-1.17578-5.88379ZM50,23a2.99984,2.99984,0,0,0,3-3V12.5a3,3,0,0,0-6,0V20A2.99984,2.99984,0,0,0,50,23ZM62,35a2.99984,2.99984,0,0,0,3,3h7.5a3,3,0,0,0,0-6H65A2.99984,2.99984,0,0,0,62,35ZM27.5,38H35a3,3,0,0,0,0-6H27.5a3,3,0,0,0,0,6Zm25.75391-6.25391a2.99891,2.99891,0,0,0,4.24219,0L68.03027,21.21191a2.99968,2.99968,0,0,0-4.24219-4.24219L53.25391,27.50391A2.99891,2.99891,0,0,0,53.25391,31.74609Zm-10.67871.07178a2.99968,2.99968,0,0,0,4.24219-4.24219L36.21094,16.96924a2.99968,2.99968,0,0,0-4.24219,4.24219Z"/></svg>