<svg xmlns="http://www.w3.org/2000/svg" width="100" height="100" viewBox="0 0 100 100"><title>where</title><path d="M97.62915,66.41467c-.04413.08228-.08038.168-.13239.24628l-.00165.00311-.00348.004a3.00028,3.00028,0,0,1-.19733.24231c-.05719.06879-.10651.14246-.17047.20654-.02423.02429-.05359.04279-.07867.06628-.05353.05023-.11072.09229-.16724.138-.07031.05695-.13489.12048-.21021.17108l-.00464.00378-45,30A2.99993,2.99993,0,1,1,48.335,92.50391L85.09082,68H34.999a3,3,0,0,1,0-6h50.0918L48.335,37.49609a2.99993,2.99993,0,1,1,3.32813-4.99219l44.9812,29.98749.01434.00952.00446.003.00464.00378c.0816.05481.152.12311.22766.18542.07391.06073.15259.114.22113.1825l.00732.00745c.064.06409.11328.13776.17047.20654a2.98753,2.98753,0,0,1,.197.2417l.00378.00464.00165.00311c.052.07831.08826.164.13239.24628a2.961,2.961,0,0,1,.13947.26422l.00726.016c.03546.08661.053.17664.08.26508l.00031.001c.028.09186.0639.18.08307.27539l.00238.01392a2.95389,2.95389,0,0,1,.0318.3114c.00793.08716.02466.1731.025.26086L97.999,65l-.00067.00677c-.00031.08777-.017.17371-.025.26086a2.95389,2.95389,0,0,1-.0318.3114l-.00238.01392c-.01917.0954-.05511.18353-.08307.27539l-.00031.001c-.02692.08844-.04449.17847-.08.26508l-.00726.016A2.961,2.961,0,0,1,97.62915,66.41467ZM27.499,2a3.00015,3.00015,0,0,0-3,3V57.5a3,3,0,0,0,6,0V5A3.00015,3.00015,0,0,0,27.499,2ZM14.77051,73.48535,9.46729,78.78906a3,3,0,0,0,4.24316,4.24219l5.30322-5.30371a3,3,0,0,0-4.24316-4.24219Zm.00049-16.9707a2.99968,2.99968,0,0,0,4.24219-4.24219L13.71,46.96924a2.99968,2.99968,0,0,0-4.24219,4.24219Zm25.45557,16.9707a2.99968,2.99968,0,0,0-4.24219,4.24219l5.30322,5.30322a2.99968,2.99968,0,0,0,4.24219-4.24219ZM19.89746,62H5a3,3,0,0,0,0,6H19.89746a3,3,0,1,0,0-6ZM27.499,69.5a3.00015,3.00015,0,0,0-3,3v15a3,3,0,0,0,6,0v-15A3.00015,3.00015,0,0,0,27.499,69.5Z"/></svg>