<svg xmlns="http://www.w3.org/2000/svg" width="100" height="100" viewBox="0 0 100 100"><title>where</title><path d="M82.99939,5.00665c-.00006.083-.01654.1626-.02344.24438a2.99372,2.99372,0,0,1-.03412.33276l-.00043.00458-.001.00531-.00348.01721L72.335,58.62158a2.99968,2.99968,0,1,1-5.88281-1.17676L75.1156,14.12665,42.4248,46.81787a2.99968,2.99968,0,0,1-4.24219-4.24219L70.873,9.88483,27.55469,18.54834a3.00006,3.00006,0,0,1-1.17578-5.88379L79.38953,2.06262l.01434-.00287.00824-.00165.00653-.00061c.097-.0191.1955-.02045.29358-.02991.09418-.00909.18634-.027.28229-.027l.00964-.00018a2.92263,2.92263,0,0,1,.32361.03107c.08466.00934.16992.00958.25372.02606l.00641.00061.00171.00049a2.93914,2.93914,0,0,1,.31586.095c.07886.025.15961.0415.23657.07318l.02155.00812c.062.026.11554.06421.17511.09406.043.02161.08521.04468.1272.0683.06342.03571.13037.06219.19159.10291l.01538.01068c.08057.0542.14948.12109.22388.18243.07385.06073.15271.11493.22064.18262l.00372.00305.00342.00415c.06232.06262.11169.13562.16809.20331a2.96316,2.96316,0,0,1,.1969.24164l.00909.01294c.05225.07849.08777.1637.1319.24573l.02.03729c.03735.072.08295.13812.11462.21368l.00671.01752a2.97443,2.97443,0,0,1,.08984.29059c.02637.088.06067.17273.07892.26337l.00079.0025.00043.00458A2.99372,2.99372,0,0,1,82.976,4.749c.0069.08179.02338.16138.02344.24438ZM42.4248,53.18213a2.99968,2.99968,0,0,0-4.24219,4.24219L77.87891,97.12109a2.99968,2.99968,0,0,0,4.24219-4.24219ZM23,50a2.99984,2.99984,0,0,0-3-3H12.5a3,3,0,0,0,0,6H20A2.99984,2.99984,0,0,0,23,50ZM35,62a2.99984,2.99984,0,0,0-3,3v7.5a3,3,0,0,0,6,0V65A2.99984,2.99984,0,0,0,35,62Zm0-24a2.99984,2.99984,0,0,0,3-3V27.5a3,3,0,0,0-6,0V35A2.99984,2.99984,0,0,0,35,38ZM31.74609,53.25391a2.99891,2.99891,0,0,0-4.24219,0L16.96973,63.78809a2.99968,2.99968,0,1,0,4.24219,4.24219L31.74609,57.49609A2.99891,2.99891,0,0,0,31.74609,53.25391Zm-4.1709-6.436a2.99968,2.99968,0,0,0,4.24219-4.24219L21.21094,31.96924a2.99968,2.99968,0,0,0-4.24219,4.24219Z"/></svg>