<svg xmlns="http://www.w3.org/2000/svg" width="100" height="100" viewBox="0 0 100 100"><title>where</title><path d="M97.62915,36.41467c-.04413.08228-.08038.168-.13239.24628l-.00165.00311-.00348.004a3.00028,3.00028,0,0,1-.19733.24231c-.05719.06879-.10651.14246-.17047.20654-.02423.02429-.05359.04279-.07867.06628-.05353.05023-.11072.09229-.16724.138-.07031.05695-.13489.12048-.21021.17108l-.00464.00378-45,30A2.99993,2.99993,0,1,1,48.335,62.50391L85.09082,38H34.999a3,3,0,0,1,0-6h50.0918L48.335,7.49609a2.99993,2.99993,0,0,1,3.32813-4.99219L96.64587,32.49243l.01062.00708.00659.00439.00464.00378a3.009,3.009,0,0,1,.244.199c.068.05664.14087.10529.20422.16852l.00787.00787c.064.06409.11328.13776.17047.20654a2.99816,2.99816,0,0,1,.197.2417l.00378.00464.00165.00311c.052.07831.08826.164.13239.24628a2.961,2.961,0,0,1,.13947.26422l.00726.016c.03546.08661.053.17664.08.26508l.00031.001c.028.09186.0639.18.08307.27539l.00238.01392a2.95389,2.95389,0,0,1,.0318.3114c.00793.08716.02466.1731.025.26086L97.999,35l-.00067.00677c-.00031.08777-.017.17371-.025.26086a2.95389,2.95389,0,0,1-.0318.3114l-.00238.01392c-.01917.0954-.05511.18353-.08307.27539l-.00031.001c-.02692.08844-.04449.17847-.08.26508l-.00726.016A2.961,2.961,0,0,1,97.62915,36.41467ZM27.499,39.5a3.00015,3.00015,0,0,0-3,3V95a3,3,0,0,0,6,0V42.5A3.00015,3.00015,0,0,0,27.499,39.5ZM14.77051,26.51465a3,3,0,0,0,4.24316-4.24219l-5.30322-5.30371a3,3,0,0,0-4.24316,4.24219Zm.00049,16.9707L9.46777,48.78857A2.99968,2.99968,0,1,0,13.71,53.03076l5.30322-5.30322A2.99968,2.99968,0,0,0,14.771,43.48535Zm23.33447-16.0918a2.98945,2.98945,0,0,0,2.12109-.87891l5.30322-5.30322a2.99968,2.99968,0,0,0-4.24219-4.24219l-5.30322,5.30322a3,3,0,0,0,2.12109,5.12109ZM19.89746,32H5a3,3,0,0,0,0,6H19.89746a3,3,0,1,0,0-6ZM27.499,9.5a3.00015,3.00015,0,0,0-3,3v15a3,3,0,0,0,6,0v-15A3.00015,3.00015,0,0,0,27.499,9.5Z"/></svg>