<svg xmlns="http://www.w3.org/2000/svg" width="100" height="100" viewBox="0 0 100 100"><title>where</title><path d="M60.499,72.50049a2.99984,2.99984,0,0,1-3,3H4.999a3,3,0,1,1,0-6h52.5A2.99984,2.99984,0,0,1,60.499,72.50049ZM97.49512,48.33643,67.50787,3.35559l-.00952-.01434-.00323-.00482-.00348-.00421a2.98715,2.98715,0,0,0-.19537-.24c-.05774-.06952-.1076-.14392-.17224-.20868l-.00781-.00781c-.0683-.06818-.14648-.12115-.22-.18164-.076-.06262-.14679-.13116-.22882-.18616l-.00427-.00354-.00159-.00085a2.94435,2.94435,0,0,0-.2688-.14471c-.08057-.04266-.15662-.0921-.24127-.12738l-.02063-.00909c-.05975-.02441-.122-.03479-.18262-.05511-.04236-.01416-.08521-.02643-.12817-.03864-.07574-.02167-.14746-.05237-.22552-.06805l-.0191-.0033c-.09534-.01862-.19147-.02008-.28741-.02936-.09467-.00922-.18829-.02661-.28369-.02686L64.999,2.00049l-.00555.00055c-.09589.00018-.18994.01758-.2851.02692-.09552.00928-.1911.01068-.286.02924l-.0199.00348c-.06879.01385-.13177.04144-.19873.05994-.05743.01587-.11456.03235-.17108.05164-.05469.01874-.11108.02771-.1651.0498l-.02264.00995c-.07635.03186-.14459.07709-.21759.11493a2.94664,2.94664,0,0,0-.29218.15735l-.00018.00012-.00427.00354c-.07306.049-.13556.11053-.20386.16559a2.9276,2.9276,0,0,0-.246.20294l-.00684.00708c-.06464.06476-.1145.13916-.17224.20868a2.98715,2.98715,0,0,0-.19537.24l-.00348.00421-.00323.00482-.00952.01434L32.50293,48.33643a2.99993,2.99993,0,1,0,4.99219,3.32813L61.999,14.90869v50.0918a3,3,0,0,0,6,0V14.90869L92.50293,51.66455a2.99993,2.99993,0,0,0,4.99219-3.32812ZM77.72754,80.98584A2.99968,2.99968,0,1,0,73.48535,85.228l5.30273,5.30371a2.99968,2.99968,0,1,0,4.24219-4.24219Zm-25.45605,0-5.30273,5.30371a2.99968,2.99968,0,1,0,4.24219,4.24219L56.51367,85.228a2.99968,2.99968,0,1,0-4.24219-4.24219Zm25.45605-16.9707,5.30273-5.30322a2.99968,2.99968,0,1,0-4.24219-4.24219l-5.30273,5.30322a2.99968,2.99968,0,1,0,4.24219,4.24219ZM64.999,77.10205a2.99984,2.99984,0,0,0-3,3V94.99951a3,3,0,1,0,6,0V80.10205A2.99984,2.99984,0,0,0,64.999,77.10205Zm22.5-7.60156h-15a3,3,0,0,0,0,6h15a3,3,0,0,0,0-6Z"/></svg>