<svg xmlns="http://www.w3.org/2000/svg" width="100" height="100" viewBox="0 0 100 100"><title>where</title><path d="M57.499,30.49951H4.999a3,3,0,0,1,0-6h52.5a3,3,0,0,1,0,6ZM97.49512,51.66357a2.99993,2.99993,0,1,0-4.99219-3.32812L67.999,85.09131V34.99951a3,3,0,0,0-6,0v50.0918L37.49512,48.33545a2.99993,2.99993,0,0,0-4.99219,3.32813L62.49017,96.64441l.00952.01434.00323.00482.00311.0036a2.99,2.99,0,0,0,.19574.2406c.05774.06952.1076.14392.17224.20868.02441.02454.054.04321.07928.06683.053.04968.10968.09137.16565.13666.07074.05743.13586.12122.21173.17212l.00427.00354c.06531.04352.1344.07587.20172.11365.03925.022.07666.04572.11682.06586.04462.02252.08893.045.13422.06506.04657.02057.09509.03619.14288.05444a2.97106,2.97106,0,0,0,.31134.10272c.02972.00775.059.01465.08893.02148.04218.00964.08411.01831.127.02612A2.985,2.985,0,0,0,64.99609,98l.00293-.00037L65.002,98a2.985,2.985,0,0,0,.53827-.05505c.04285-.00781.08478-.01648.127-.02612.03-.00684.0592-.01373.08893-.02148a2.97106,2.97106,0,0,0,.31134-.10272c.04779-.01825.09631-.03387.14288-.05444.04529-.02008.0896-.04254.13422-.06506.04016-.02014.07758-.04388.11682-.06586.06732-.03778.13641-.07013.20172-.11365l.00427-.00354c.07587-.0509.141-.11469.21173-.17212.056-.04529.11267-.087.16565-.13666.02527-.02362.05487-.0423.07928-.06683.06464-.06476.1145-.13916.17224-.20868a2.99,2.99,0,0,0,.19574-.2406l.00311-.0036.00323-.00482.00952-.01434ZM75.60645,19.89307a2.98862,2.98862,0,0,0,2.12109-.87891l5.30273-5.30371a2.99968,2.99968,0,1,0-4.24219-4.24219L73.48535,14.772a2.99976,2.99976,0,0,0,2.12109,5.12109Zm-23.335-.87891A2.99968,2.99968,0,1,0,56.51367,14.772L51.21094,9.46826a2.99968,2.99968,0,1,0-4.24219,4.24219ZM73.48535,35.98438a2.9995,2.9995,0,0,0,0,4.24268l5.30273,5.30322a2.99968,2.99968,0,1,0,4.24219-4.24219l-5.30273-5.30322A2.99979,2.99979,0,0,0,73.48535,35.98438ZM64.999,22.89795a2.99984,2.99984,0,0,0,3-3V5.00049a3,3,0,0,0-6,0V19.89795A2.99984,2.99984,0,0,0,64.999,22.89795Zm7.5,7.60156h15a3,3,0,0,0,0-6h-15a3,3,0,0,0,0,6Z"/></svg>