<svg xmlns="http://www.w3.org/2000/svg" width="100" height="100" viewBox="0 0 100 100"><title>where</title><path d="M17.87891,7.12109a2.99968,2.99968,0,0,1,4.24219-4.24219L61.81787,42.57568a2.99968,2.99968,0,1,1-4.24219,4.24219ZM72.44482,81.45166,29.12714,90.11505,61.81787,57.42432a2.99968,2.99968,0,0,0-4.24219-4.24219L24.88495,85.87286l8.66339-43.31769a3.00016,3.00016,0,1,0-5.88379-1.17676L17.06207,94.39191l-.00226.01123-.00171.00848-.00067.007a2.98969,2.98969,0,0,0-.0304.29907c-.00879.09259-.02649.18311-.02655.27722v.01013c.00006.09412.01776.18463.02655.27722a2.98969,2.98969,0,0,0,.0304.29907l.00067.007.00128.00427c.00934.046.02789.08856.03931.13391a3.03,3.03,0,0,0,.11713.389l.012.02863c.019.04584.04663.08691.06781.13165a2.984,2.984,0,0,0,.1792.33746c.00946.01483.01642.03058.02618.04529.02655.04.06158.07361.09.11237a2.99233,2.99233,0,0,0,.2265.27814c.02051.022.03711.04694.05835.06824l.003.00372c.02289.02289.05.03809.07349.06006l.01947.01624a2.99737,2.99737,0,0,0,.25171.20978c.03772.02783.07135.05975.11047.08594.03192.02142.06635.03644.09888.05652a3.00371,3.00371,0,0,0,.27252.14563c.0495.02374.09467.05341.14575.07452.02509.01044.05078.01746.07611.02716a2.98072,2.98072,0,0,0,.369.10956c.03961.00958.075.02734.1153.0354l.00708.00073.03082.00458a2.96974,2.96974,0,0,0,.54706.05328L20,98.00012l.00342.00037a2.97091,2.97091,0,0,0,.54712-.05328l.03076-.00458.00708-.00073,53.0332-10.60645a3.00016,3.00016,0,1,0-1.17676-5.88379ZM87.5,47H80a3,3,0,0,0,0,6h7.5a3,3,0,0,0,0-6ZM65,38a3.00015,3.00015,0,0,0,3-3V27.5a3,3,0,0,0-6,0V35A3.00015,3.00015,0,0,0,65,38ZM62,65v7.5a3,3,0,0,0,6,0V65a3,3,0,0,0-6,0Zm6.25391-18.25391a2.99891,2.99891,0,0,0,4.24219,0L83.03027,36.21191a2.99968,2.99968,0,1,0-4.24219-4.24219L68.25391,42.50391A2.99891,2.99891,0,0,0,68.25391,46.74609Zm4.17041,6.436a2.99968,2.99968,0,0,0-4.24219,4.24219L78.78857,68.03076a2.99968,2.99968,0,0,0,4.24219-4.24219Z"/></svg>