<svg xmlns="http://www.w3.org/2000/svg" width="100" height="100" viewBox="0 0 100 100"><title>where</title><path d="M97.12109,22.12109,57.42432,61.81787a2.99968,2.99968,0,0,1-4.24219-4.24219L92.87891,17.87891a2.99968,2.99968,0,0,1,4.24219,4.24219Zm-87.23615,7.006L42.57568,61.81787a2.99968,2.99968,0,0,0,4.24219-4.24219L14.12714,24.88495l43.31769,8.66339a3.00016,3.00016,0,1,0,1.17676-5.88379L5.60541,17.06152l-.00665-.00134-.01038-.00208-.0069-.00067a3.01908,3.01908,0,0,0-.32-.03235c-.08563-.00757-.169-.02448-.256-.02454l-.01257.00012c-.07117.00012-.13922.01489-.20947.02008a2.99457,2.99457,0,0,0-.36487.03668l-.007.00067-.00732.00226c-.0708.0144-.13654.04291-.20569.06226a2.94986,2.94986,0,0,0-.34692.1073l-.00836.00275a2.935,2.935,0,0,0-.26093.139c-.0816.044-.16626.07983-.24438.132l-.00549.00409a2.97787,2.97787,0,0,0-.29022.23615c-.05157.04468-.10889.082-.15741.13013l-.006.00488-.003.00372a2.98987,2.98987,0,0,0-.19238.23279c-.05774.07074-.12134.1358-.17267.212l-.00983.01392c-.04962.07452-.08295.15552-.12518.23328l-.0199.037c-.0401.07623-.0882.14679-.12183.22711l-.00629.017c-.03729.09039-.05786.18481-.08594.27783-.02783.09137-.06354.17969-.08258.274l-.00122.004-.00067.007a2.98969,2.98969,0,0,0-.0304.29907c-.00879.09259-.02649.18311-.02655.27722v.01013c.00006.09412.01776.18463.02655.27722a2.98969,2.98969,0,0,0,.0304.29907l.00067.007.00171.00848.00226.01123L12.66455,73.62158a3.00016,3.00016,0,1,0,5.88379-1.17676ZM50,77a3.00015,3.00015,0,0,0-3,3v7.5a3,3,0,0,0,6,0V80A3.00015,3.00015,0,0,0,50,77ZM72.5,62H65a3,3,0,0,0,0,6h7.5a3,3,0,0,0,0-6ZM38,65a3.00015,3.00015,0,0,0-3-3H27.5a3,3,0,0,0,0,6H35A3.00015,3.00015,0,0,0,38,65Zm19.49609,3.25391a2.99968,2.99968,0,0,0-4.24219,4.24219L63.78809,83.03027a2.99968,2.99968,0,0,0,4.24219-4.24219Zm-10.67822-.07178a2.99891,2.99891,0,0,0-4.24219,0L31.96924,78.78857a2.99968,2.99968,0,1,0,4.24219,4.24219L46.81787,72.42432A2.99891,2.99891,0,0,0,46.81787,68.18213Z"/></svg>