<svg xmlns="http://www.w3.org/2000/svg" width="100" height="100" viewBox="0 0 100 100"><title>where</title><path d="M97.999,72.50049a2.99984,2.99984,0,0,1-3,3h-52.5a3,3,0,0,1,0-6h52.5A2.99984,2.99984,0,0,1,97.999,72.50049ZM62.50293,51.66455a2.99993,2.99993,0,1,0,4.99219-3.32812L37.50787,3.35559l-.00952-.01434-.00323-.00482-.00348-.00421a2.98715,2.98715,0,0,0-.19537-.24c-.05774-.06952-.1076-.14392-.17224-.20868l-.00781-.00781c-.0683-.06818-.14648-.12115-.22-.18164-.076-.06262-.14679-.13116-.22882-.18616l-.00427-.00354-.00159-.00085a2.94435,2.94435,0,0,0-.2688-.14471c-.08057-.04266-.15662-.0921-.24127-.12738l-.02063-.00909c-.06024-.0246-.12317-.03516-.18433-.0556-.04181-.014-.08411-.02606-.12646-.03815-.07574-.02167-.14746-.05237-.22552-.06805l-.01892-.0033c-.09589-.0188-.1925-.02026-.28906-.02954-.09424-.00916-.18732-.02643-.28223-.02667L34.999,2.00049l-.00543.00055c-.095.00018-.18817.01752-.28247.02667-.09656.00928-.19305.01074-.28894.02954l-.01917.00336c-.07373.01489-.14136.04407-.213.06427-.04657.01306-.0929.02655-.13885.04187-.0611.02045-.1239.031-.18414.0556l-.02106.00934c-.08173.03406-.155.082-.23291.123a2.94813,2.94813,0,0,0-.27686.149l-.00122.00067-.00427.00354c-.08075.05414-.15027.1217-.22522.18323s-.1543.11523-.22363.18457l-.00781.00781c-.06464.06476-.1145.13916-.17224.20868a2.98715,2.98715,0,0,0-.19537.24l-.00348.00421-.00323.00482-.00952.01434L2.50293,48.33643a2.99993,2.99993,0,1,0,4.99219,3.32813L31.999,14.90869v50.0918a3,3,0,1,0,6,0V14.90869ZM22.27148,80.98584l-5.30273,5.30371a2.99968,2.99968,0,1,0,4.24219,4.24219L26.51367,85.228a2.99968,2.99968,0,1,0-4.24219-4.24219Zm25.45605,0A2.99968,2.99968,0,1,0,43.48535,85.228l5.30273,5.30371a2.99968,2.99968,0,1,0,4.24219-4.24219ZM24.39258,64.894a2.99976,2.99976,0,0,0,2.12109-5.12109l-5.30273-5.30322a2.99968,2.99968,0,1,0-4.24219,4.24219l5.30273,5.30322A2.99028,2.99028,0,0,0,24.39258,64.894ZM34.999,77.10205a2.99984,2.99984,0,0,0-3,3V94.99951a3,3,0,1,0,6,0V80.10205A2.99984,2.99984,0,0,0,34.999,77.10205Zm-7.5-7.60156H12.5a3,3,0,0,0,0,6H27.499a3,3,0,1,0,0-6Z"/></svg>