<svg xmlns="http://www.w3.org/2000/svg" width="100" height="100" viewBox="0 0 100 100"><title>where</title><path d="M42.57568,61.81787,2.87891,22.12109a2.99968,2.99968,0,0,1,4.24219-4.24219L46.81787,57.57568a2.99968,2.99968,0,1,1-4.24219,4.24219ZM97.99951,20.00507v-.01013c-.00006-.09412-.01776-.18463-.02655-.27722a2.98969,2.98969,0,0,0-.0304-.29907l-.00067-.007-.00122-.004c-.019-.0943-.05475-.18262-.08258-.274-.02808-.093-.04865-.18744-.08594-.27783l-.006-.01648a2.93973,2.93973,0,0,0-.14148-.26361l-.00055-.001c-.04224-.07776-.07556-.15875-.12518-.23328l-.00848-.01227a2.94514,2.94514,0,0,0-.202-.248c-.05524-.066-.10358-.13733-.16443-.19849l-.003-.00372-.00354-.00287c-.063-.06268-.13635-.11255-.20447-.16931a2.95567,2.95567,0,0,0-.24194-.197l-.01215-.00854c-.07739-.05145-.16138-.08643-.24219-.12994-.08539-.046-.16547-.09943-.25616-.13739l-.01569-.00574a2.97691,2.97691,0,0,0-.28882-.08929c-.088-.02637-.17255-.061-.26312-.07935l-.00464-.0014-.007-.00067a3.0106,3.0106,0,0,0-.31433-.03186c-.0874-.00787-.17267-.025-.26141-.025l-.01251.00012c-.06921.00012-.1355.01465-.204.01953a3.00428,3.00428,0,0,0-.37061.03723l-.007.00067L41.37842,27.66455a3.00016,3.00016,0,1,0,1.17676,5.88379l43.31769-8.66339L53.18213,57.57568a2.99968,2.99968,0,1,0,4.24219,4.24219L90.11505,29.12714,81.45166,72.44482a3.00016,3.00016,0,1,0,5.88379,1.17676L97.93793,20.60809l.00226-.01123.00171-.00848.00067-.007a2.98969,2.98969,0,0,0,.0304-.29907C97.98175,20.1897,97.99945,20.09918,97.99951,20.00507ZM50,77a3.00015,3.00015,0,0,0-3,3v7.5a3,3,0,0,0,6,0V80A3.00015,3.00015,0,0,0,50,77ZM38,65a3.00015,3.00015,0,0,0-3-3H27.5a3,3,0,0,0,0,6H35A3.00015,3.00015,0,0,0,38,65Zm34.5-3H65a3,3,0,0,0,0,6h7.5a3,3,0,0,0,0-6ZM46.74609,68.25391a2.99891,2.99891,0,0,0-4.24219,0L31.96973,78.78809a2.99968,2.99968,0,1,0,4.24219,4.24219L46.74609,72.49609A2.99891,2.99891,0,0,0,46.74609,68.25391Zm10.67822-.07178a2.99968,2.99968,0,0,0-4.24219,4.24219L63.78857,83.03076a2.99968,2.99968,0,0,0,4.24219-4.24219Z"/></svg>