<svg xmlns="http://www.w3.org/2000/svg" width="100" height="100" viewBox="0 0 100 100"><title>where</title><path d="M65,32H35a2.99952,2.99952,0,0,0-3,3V65a2.99952,2.99952,0,0,0,3,3H65a2.99952,2.99952,0,0,0,3-3V35A2.99952,2.99952,0,0,0,65,32ZM62,62H38V38H62ZM50,77A10.5,10.5,0,1,0,60.5,87.5,10.51148,10.51148,0,0,0,50,77Zm0,15a4.5,4.5,0,1,1,4.5-4.5A4.50492,4.50492,0,0,1,50,92Zm0-69A10.5,10.5,0,1,0,39.5,12.5,10.51148,10.51148,0,0,0,50,23ZM50,8a4.5,4.5,0,1,1-4.5,4.5A4.50492,4.50492,0,0,1,50,8ZM23,50A10.5,10.5,0,1,0,12.5,60.5,10.51148,10.51148,0,0,0,23,50ZM8,50a4.5,4.5,0,1,1,4.5,4.5A4.50492,4.50492,0,0,1,8,50ZM87.5,39.5A10.5,10.5,0,1,0,98,50,10.51148,10.51148,0,0,0,87.5,39.5Zm0,15A4.5,4.5,0,1,1,92,50,4.50492,4.50492,0,0,1,87.5,54.5ZM80,30.5A10.5,10.5,0,1,0,69.5,20,10.51148,10.51148,0,0,0,80,30.5Zm0-15A4.5,4.5,0,1,1,75.5,20,4.50492,4.50492,0,0,1,80,15.5Zm-60-6A10.5,10.5,0,1,0,30.5,20,10.51148,10.51148,0,0,0,20,9.5Zm0,15A4.5,4.5,0,1,1,24.5,20,4.50492,4.50492,0,0,1,20,24.5Zm0,45A10.5,10.5,0,1,0,30.5,80,10.51148,10.51148,0,0,0,20,69.5Zm0,15A4.5,4.5,0,1,1,24.5,80,4.50492,4.50492,0,0,1,20,84.5Zm60-15A10.5,10.5,0,1,0,90.5,80,10.51148,10.51148,0,0,0,80,69.5Zm0,15A4.5,4.5,0,1,1,84.5,80,4.50492,4.50492,0,0,1,80,84.5Z"/></svg>