<svg xmlns="http://www.w3.org/2000/svg" width="100" height="100" viewBox="0 0 100 100"><title>where</title><path d="M4.49023,22.39941A3.00187,3.00187,0,1,1,7.25977,26.54a2.865,2.865,0,0,1-1.13965-.23047A2.99406,2.99406,0,0,1,4.49023,22.39941ZM8,35.01953a3,3,0,1,0-3,3A3.00265,3.00265,0,0,0,8,35.01953Zm48.16992-18.2793A2.95678,2.95678,0,0,0,58.29,15.85938a3.00485,3.00485,0,1,0-2.12012.88086Zm-50.04,26.98926A3,3,0,0,0,7.28027,49.5a3.13318,3.13318,0,0,0,1.14941-.23047,2.99921,2.99921,0,1,0-2.2998-5.54ZM45.29,10.03027a3.04993,3.04993,0,0,0,1.13965.21973,3,3,0,0,0,1.15039-5.77051h-.01074A3.00027,3.00027,0,0,0,45.29,10.03027Zm14.63965,14.5791A2.99272,2.99272,0,0,0,62.7002,26.4502a2.91121,2.91121,0,0,0,1.14941-.23047,3.0011,3.0011,0,1,0-3.91992-1.62012ZM24.66992,59.9502a2.99922,2.99922,0,1,0-2.2998,5.54,2.88071,2.88071,0,0,0,1.13965.22949,2.99942,2.99942,0,0,0,1.16016-5.76953ZM34.9502,8a3,3,0,1,0-3-2.99023A3.00328,3.00328,0,0,0,34.9502,8ZM13.75977,16.80957a2.99513,2.99513,0,1,0-2.12012-.87012A2.99661,2.99661,0,0,0,13.75977,16.80957ZM23.47949,10.29a2.95015,2.95015,0,0,0,1.15039-.23047,3.00023,3.00023,0,1,0-1.15039.23047ZM11.66992,54.09961a2.9983,2.9983,0,1,0,4.24023,0A3.00009,3.00009,0,0,0,11.66992,54.09961ZM98,65A33,33,0,1,1,65,32,33.03734,33.03734,0,0,1,98,65Zm-6,0A27,27,0,1,0,65,92,27.03078,27.03078,0,0,0,92,65Z"/></svg>