<svg xmlns="http://www.w3.org/2000/svg" width="100" height="100" viewBox="0 0 100 100"><title>where</title><path d="M95,47H82.85748A33.04764,33.04764,0,0,0,53,17.14252V5a2.99952,2.99952,0,0,0-3-3H5A2.99952,2.99952,0,0,0,2,5V50a2.99952,2.99952,0,0,0,3,3H17.14252A33.04764,33.04764,0,0,0,47,82.85748V95a2.99952,2.99952,0,0,0,3,3H95a2.99952,2.99952,0,0,0,3-3V50A2.99952,2.99952,0,0,0,95,47ZM8,8H47v9.14252A33.04764,33.04764,0,0,0,17.14252,47H8ZM23,50a26.99817,26.99817,0,0,1,53.82935-3H50a2.99952,2.99952,0,0,0-3,3V76.82935A27.03591,27.03591,0,0,1,23,50ZM92,92H53V53H92Z"/></svg>