<svg xmlns="http://www.w3.org/2000/svg" width="100" height="100" viewBox="0 0 100 100"><title>where</title><path d="M67.86755,32.13245A32.996,32.996,0,1,0,32.13245,67.86755,32.996,32.996,0,1,0,67.86755,32.13245ZM65,92A27.03078,27.03078,0,0,1,38,65a2.9835,2.9835,0,0,0-.04877-.48413c-.00488-.03027-.0033-.06091-.00916-.09094a2.95869,2.95869,0,0,0-.12872-.43469c-.015-.04187-.02246-.08545-.03931-.12671a2.98134,2.98134,0,0,0-.22687-.43152c-.01752-.02844-.02881-.0592-.0473-.087a3.00961,3.00961,0,0,0-.84479-.84485c-.02789-.01843-.05872-.02979-.0871-.04724a2.97916,2.97916,0,0,0-.43158-.22693c-.04126-.01685-.08478-.02429-.12659-.03931a2.95,2.95,0,0,0-.43475-.12878c-.03-.00586-.06073-.00415-.09088-.009A2.985,2.985,0,0,0,35,62,27,27,0,1,1,61.999,34.96a2.97879,2.97879,0,0,0,.23468,1.20129c.01825.04333.04547.08142.06561.12366a2.93684,2.93684,0,0,0,.20691.38135,3.01222,3.01222,0,0,0,.82336.82532,2.86408,2.86408,0,0,0,.35394.192c.054.02661.10321.06055.159.084a2.95746,2.95746,0,0,0,.39178.12158c.05872.0155.11377.03918.17383.05127A3.05434,3.05434,0,0,0,65,38a27,27,0,0,1,0,54ZM44.62012,55.37988A3,3,0,0,1,42.5,60.5a2.95813,2.95813,0,0,1-2.12012-.87988,2.9983,2.9983,0,0,1,4.24023-4.24023Zm7.5-7.5A3,3,0,0,1,50,53a2.95813,2.95813,0,0,1-2.12012-.87988,2.9983,2.9983,0,0,1,4.24023-4.24023Zm7.5-7.5A3,3,0,0,1,57.5,45.5a3,3,0,0,1-2.12012-5.12012A3.00009,3.00009,0,0,1,59.62012,40.37988Z"/></svg>