<svg xmlns="http://www.w3.org/2000/svg" width="100" height="100" viewBox="0 0 100 100"><title>where</title><path d="M98,50V72.5a25.5,25.5,0,0,1-51,0V44.9082L34.49609,63.66406a2.99993,2.99993,0,0,1-4.99219-3.32812L47.491,33.35535l.00995-.01489.003-.00452.00317-.00385a2.98057,2.98057,0,0,1,.20361-.25006c.05524-.06592.10236-.137.16382-.19861l.00842-.00848c.06555-.06549.141-.11609.21149-.1745a3.0029,3.0029,0,0,1,.23767-.19336l.00385-.00317.00128-.00067a2.9536,2.9536,0,0,1,.26428-.1424c.082-.04358.15967-.094.246-.12994l.0191-.00842c.07208-.02954.14716-.04309.22046-.06659.02759-.00885.05518-.01709.083-.02509.07867-.02277.15338-.05444.23456-.0708l.0174-.003a2.94727,2.94727,0,0,1,.298-.03052c.09155-.00867.18188-.02563.27411-.02588L50,32l.00555.00055c.0918.00024.18164.01727.27277.02588a2.9568,2.9568,0,0,1,.29926.03064l.01666.00281c.0907.01819.1745.05292.262.0791l.04089.01239c.07874.02478.15912.03979.23645.07141l.01709.00757a2.97512,2.97512,0,0,1,.26947.14227c.08057.04346.16449.07892.24121.12988l.00269.0014.00385.00317a3,3,0,0,1,.26178.21326c.06165.05219.12866.09613.18646.15381l.00934.00928c.06146.06158.10858.13269.16382.19861a2.98057,2.98057,0,0,1,.20361.25006l.00317.00385.003.00452.00995.01489L70.49609,60.33594a2.99993,2.99993,0,1,1-4.99219,3.32813L53,44.9082V72.5a19.5,19.5,0,0,0,39,0V50A42,42,0,0,0,8,50V95a3,3,0,0,1-6,0V50a48,48,0,0,1,96,0Z"/></svg>