<svg xmlns="http://www.w3.org/2000/svg" width="100" height="100" viewBox="0 0 100 100"><title>where</title><path d="M98,50A48.05406,48.05406,0,0,1,50,98H5a3,3,0,0,1,0-6H50A42,42,0,0,0,50,8H27.5a19.5,19.5,0,0,0,0,39H55.0918L36.33594,34.49609a2.99993,2.99993,0,1,1,3.32813-4.99219L66.64838,47.49347l.00775.00513.00793.00531.00421.00348a2.9921,2.9921,0,0,1,.26971.22c.05878.05.1228.09174.178.14685l.00928.00922c.06085.061.10742.13129.16217.19653a2.99779,2.99779,0,0,1,.20514.25171l.00348.00427.00159.003c.05109.0769.08661.16107.13007.24182a2.946,2.946,0,0,1,.14191.26886l.00745.01648c.0332.08093.049.16522.07471.2478l.0047.0155c.0282.09253.06439.1814.08368.27747l.00244.01459a2.93608,2.93608,0,0,1,.03137.30695c.00812.08838.025.17572.02533.26471L68,50l-.00067.0069c-.00031.089-.01721.17633-.02533.26471a2.93608,2.93608,0,0,1-.03137.30695l-.00244.01459c-.01929.09607-.05548.18494-.08368.27747l-.0047.0155c-.0257.08258-.0415.16687-.07471.2478l-.00745.01648a2.946,2.946,0,0,1-.14191.26886c-.04346.08075-.079.16492-.13007.24182l-.00159.003-.00317.00366a2.98823,2.98823,0,0,1-.20544.25232c-.05475.06525-.10132.13556-.16217.19653-.0246.02472-.05438.04358-.07983.06744-.05267.04938-.10907.09082-.16467.13586-.071.05768-.13635.1217-.21252.17273l-.00421.00348-27,18a2.99993,2.99993,0,1,1-3.32812-4.99219L55.0918,53H27.5a25.5,25.5,0,0,1,0-51H50A48.05406,48.05406,0,0,1,98,50Z"/></svg>