<svg xmlns="http://www.w3.org/2000/svg" width="100" height="100" viewBox="0 0 100 100"><title>where</title><path d="M98,5V50A48,48,0,0,1,2,50V27.5a25.5,25.5,0,0,1,51,0V55.0918L65.50391,36.33594a2.99993,2.99993,0,1,1,4.99219,3.32813L52.509,66.64465l-.00995.01489-.003.00452-.00287.0033a2.9799,2.9799,0,0,1-.20392.25061c-.05524.06592-.10236.137-.16382.19861-.02484.0249-.05487.04388-.08051.06793-.05212.049-.108.09-.163.13458-.07147.058-.13733.12238-.21405.17383l-.00385.00317c-.0658.04382-.13538.07648-.20319.11444-.03839.02148-.075.04474-.11426.06439-.04468.02252-.08905.04517-.1344.06531-.04785.02118-.09772.03711-.14679.05585a2.98445,2.98445,0,0,1-.30914.10168c-.02863.00745-.0567.01422-.08551.02081-.04419.01013-.08826.0191-.13318.02728A2.99422,2.99422,0,0,1,50.00293,68l-.00134-.00018L50,68l-.00159-.00018L49.99707,68a2.99422,2.99422,0,0,1-.53467-.05414c-.04492-.00818-.089-.01715-.13318-.02728-.02881-.00659-.05688-.01337-.08551-.02081a2.98445,2.98445,0,0,1-.30914-.10168c-.04907-.01874-.09894-.03467-.14679-.05585-.04535-.02014-.08972-.04279-.1344-.06531-.03925-.01965-.07587-.04291-.11426-.06439-.06781-.038-.13739-.07062-.20319-.11444l-.00385-.00317c-.07672-.05145-.14258-.11578-.21405-.17383-.05505-.04462-.1109-.08563-.163-.13458-.02563-.024-.05566-.043-.08051-.06793-.06146-.06158-.10858-.13269-.16382-.19861a2.9799,2.9799,0,0,1-.20392-.25061l-.00287-.0033-.003-.00452-.00995-.01489L29.50391,39.66406a2.99993,2.99993,0,1,1,4.99219-3.32812L47,55.0918V27.5a19.5,19.5,0,0,0-39,0V50a42,42,0,0,0,84,0V5a3,3,0,0,1,6,0Z"/></svg>