<svg xmlns="http://www.w3.org/2000/svg" width="100" height="100" viewBox="0 0 100 100"><title>where</title><path d="M98,95a2.99984,2.99984,0,0,1-3,3H50A48,48,0,0,1,50,2H72.5a25.5,25.5,0,0,1,0,51H44.9082L63.66406,65.50391a2.99993,2.99993,0,1,1-3.32812,4.99219l-27-18-.00421-.00348c-.07617-.051-.14148-.11505-.21252-.17273-.0556-.045-.112-.08649-.16467-.13586-.02545-.02386-.05524-.04272-.07983-.06744-.06085-.061-.10742-.13129-.16217-.19653a2.98823,2.98823,0,0,1-.20544-.25232l-.00317-.00366-.00159-.003c-.05109-.0769-.08661-.16107-.13007-.24182a2.946,2.946,0,0,1-.14191-.26886l-.00745-.01648c-.0332-.08093-.049-.16522-.07471-.2478l-.0047-.0155c-.0282-.09253-.06439-.1814-.08368-.27747l-.00244-.01459a2.93608,2.93608,0,0,1-.03137-.30695c-.00812-.08838-.025-.17572-.02533-.26471L32,50l.00067-.0069c.00031-.089.01721-.17633.02533-.26471a2.93608,2.93608,0,0,1,.03137-.30695l.00244-.01459c.01929-.09607.05548-.18494.08368-.27747l.0047-.0155c.0257-.08258.0415-.16687.07471-.2478l.00745-.01648a2.946,2.946,0,0,1,.14191-.26886c.04346-.08075.079-.16492.13007-.24182l.00159-.003.00354-.00427a2.99707,2.99707,0,0,1,.20508-.25171c.05475-.06525.10132-.13556.16217-.19653l.00836-.00842c.06525-.06512.1402-.11548.21033-.17358a3.00782,3.00782,0,0,1,.23834-.194l.00421-.00348.00452-.003.01489-.00995L60.33594,29.50391a2.99993,2.99993,0,1,1,3.32813,4.99219L44.9082,47H72.5a19.5,19.5,0,0,0,0-39H50a42,42,0,0,0,0,84H95A2.99984,2.99984,0,0,1,98,95Z"/></svg>