<svg xmlns="http://www.w3.org/2000/svg" width="100" height="100" viewBox="0 0 100 100"><title>where</title><path d="M97.63013,66.41907c-.04413.08228-.08038.168-.13239.24628l-.00165.00311-.00348.004a3.00028,3.00028,0,0,1-.19733.24231c-.05719.06879-.10651.14246-.17047.20654-.02423.02429-.05359.04279-.07867.06628-.05353.05023-.11072.09229-.16724.138-.07031.05695-.13489.12048-.21021.17108l-.00464.00378-45,30a2.99993,2.99993,0,1,1-3.32812-4.99219L85.0918,68.00439H35a33.03734,33.03734,0,0,1-33-33V5A3,3,0,0,1,8,5V35.00439a27.03078,27.03078,0,0,0,27,27H85.0918L48.33594,37.50049a2.99993,2.99993,0,1,1,3.32813-4.99219L96.64825,62.49774l.00745.005.00836.00555.00464.00378a2.99266,2.99266,0,0,1,.26129.2132c.06165.05219.12848.096.18628.15369l.00854.00848c.064.06409.11328.13776.17047.20654a2.99816,2.99816,0,0,1,.197.2417l.00378.00464.00165.00311c.052.07831.08826.164.13239.24628a2.961,2.961,0,0,1,.13947.26422l.00726.016c.03546.08661.053.17664.08.26508l.00031.001c.028.09186.0639.18.08307.27539l.00238.01392a2.95388,2.95388,0,0,1,.0318.3114c.00793.08716.02466.1731.025.26086L98,65.00439l-.00067.00677c-.00031.08777-.017.17371-.025.26086a2.95388,2.95388,0,0,1-.0318.3114l-.00238.01392c-.01917.0954-.05511.18353-.08307.27539l-.00031.001c-.02692.08844-.04449.17847-.08.26508l-.00726.016A2.961,2.961,0,0,1,97.63013,66.41907Z"/></svg>