<svg xmlns="http://www.w3.org/2000/svg" width="100" height="100" viewBox="0 0 100 100"><title>where</title><path d="M96.66064,52.49609a2.99849,2.99849,0,0,1-4.16016-.832L67.99658,14.9082V65a33,33,0,1,1-66,0l.00006-.00049L1.99658,64.999l.01611-60a3.00025,3.00025,0,0,1,3-2.999h.001a2.99984,2.99984,0,0,1,2.999,3.001L7.99658,65a27,27,0,1,0,54,0V14.9082L37.49268,51.66406a2.99993,2.99993,0,0,1-4.99219-3.32812L62.48859,3.35376l.00787-.01172.004-.0061.00378-.00464a2.98752,2.98752,0,0,1,.197-.2417c.05719-.06879.10651-.14246.17047-.20654l.00739-.00751c.06891-.06885.14795-.12238.22229-.18341.07532-.06189.14526-.12994.22644-.18445l.00464-.00378.00232-.00122a2.94014,2.94014,0,0,1,.26233-.14111c.08264-.04395.16089-.09454.24786-.1308l.01849-.0083c.06964-.0285.14215-.04132.213-.06427.02576-.0083.05176-.01587.0777-.02344.08307-.02441.16229-.05756.24823-.07483l.017-.00287c.09381-.01837.18829-.01959.28278-.02887.09613-.00958.19116-.02734.288-.02759L64.99658,2l.00769.00079c.08252.00031.16327.01642.2453.02344a2.95591,2.95591,0,0,1,.3266.03339l.01324.0022c.09558.01917.184.05518.276.08319.08868.027.179.04468.26581.08026l.016.0072c.09125.038.17358.09076.26.13721.08392.0448.17126.08191.251.13495l.00238.00128.00464.00378c.08221.05524.15314.12408.22937.18689.0733.06036.15143.1131.21948.18109l.00726.00739c.064.06409.11328.13776.17047.20654a2.98752,2.98752,0,0,1,.197.2417l.00378.00464.004.0061.00787.01172,29.9881,44.98218A3.00014,3.00014,0,0,1,96.66064,52.49609Z"/></svg>