<svg xmlns="http://www.w3.org/2000/svg" width="100" height="100" viewBox="0 0 100 100"><title>where</title><path d="M67.5108,96.64734l-.00952.01434-.00323.00482-.00311.0036a2.99,2.99,0,0,1-.19574.2406c-.05774.06952-.1076.14392-.17224.20868-.02441.02454-.054.04321-.07928.06683-.053.04968-.10968.09137-.16565.13666-.07074.05743-.13586.12122-.21173.17212l-.00427.00354c-.06531.04352-.1344.07587-.20172.11365-.03925.022-.07666.04572-.11682.06586-.04462.02252-.08893.045-.13422.06506-.04657.02057-.09509.03619-.14288.05444a2.97106,2.97106,0,0,1-.31134.10272c-.02972.00775-.059.01465-.08893.02148-.04218.00964-.08411.01831-.127.02612a2.985,2.985,0,0,1-.53827.05505l-.00293-.00037-.00293.00037a2.985,2.985,0,0,1-.53827-.05505c-.04285-.00781-.08478-.01648-.127-.02612-.03-.00684-.0592-.01373-.08893-.02148a2.97106,2.97106,0,0,1-.31134-.10272c-.04779-.01825-.09631-.03387-.14288-.05444-.04529-.02008-.0896-.04254-.13422-.06506-.04016-.02014-.07758-.04388-.11682-.06586-.06732-.03778-.13641-.07013-.20172-.11365l-.00427-.00354c-.07587-.0509-.141-.11469-.21173-.17212-.056-.04529-.11267-.087-.16565-.13666-.02527-.02362-.05487-.0423-.07928-.06683-.06464-.06476-.1145-.13916-.17224-.20868a2.99,2.99,0,0,1-.19574-.2406l-.00311-.0036-.00323-.00482-.00952-.01434L32.50586,51.6665A2.99993,2.99993,0,1,1,37.498,48.33838L62.002,85.09424V35.00244a27.03078,27.03078,0,0,0-27-27H4.998a3,3,0,0,1,0-6H35.002a33.03734,33.03734,0,0,1,33,33v50.0918L92.50586,48.33838A2.99993,2.99993,0,0,1,97.498,51.6665Z"/></svg>