<svg xmlns="http://www.w3.org/2000/svg" width="100" height="100" viewBox="0 0 100 100"><title>where</title><path d="M96.666,52.49854a2.99849,2.99849,0,0,1-4.16016-.832L68.002,14.91064v50.0918a33.03734,33.03734,0,0,1-33,33H4.998a3,3,0,0,1,0-6H35.002a27.03078,27.03078,0,0,0,27-27V14.91064L37.498,51.6665a2.99993,2.99993,0,1,1-4.99219-3.32812L62.4931,3.35754l.00952-.01434.00323-.00482.00348-.00421a2.98715,2.98715,0,0,1,.19537-.24c.05774-.06952.1076-.14392.17224-.20868l.00671-.007a2.9198,2.9198,0,0,1,.2561-.2113c.065-.05188.124-.1106.19324-.157a2.95512,2.95512,0,0,1,.31451-.17072c.067-.03418.12915-.07593.19891-.1051l.02374-.01056c.05713-.02338.11688-.0332.1748-.0528.06683-.02252.134-.04327.20215-.061.053-.01379.10229-.03619.15643-.04718l.02075-.00391c.09717-.019.19513-.02069.293-.03.09393-.009.18677-.02606.28131-.02618l.0033-.00031.00281.00031c.09412.00012.18646.01715.27991.02606a2.94075,2.94075,0,0,1,.29407.03009l.02.00372c.06769.01367.12964.04089.19556.059.0495.01361.09845.02832.14722.04443.06384.02118.12939.03235.19226.058l.02142.00952c.08124.03387.15411.08167.23157.12231a2.955,2.955,0,0,1,.27783.1496l.00146.00079.00427.00354c.08142.05463.15161.12262.22711.18475.07416.06091.153.11426.22174.183l.00781.00787c.06464.06476.1145.13916.17224.20868a2.98715,2.98715,0,0,1,.19537.24l.00348.00421.00323.00482.00952.01434L97.498,48.33838A2.99971,2.99971,0,0,1,96.666,52.49854Z"/></svg>