<svg xmlns="http://www.w3.org/2000/svg" width="100" height="100" viewBox="0 0 100 100"><title>where</title><path d="M48.333,62.50391,85.08887,38H34.99707a27,27,0,0,0,0,54l59.999-.01562h.001a3,3,0,0,1,.001,6L34.998,98h-.001a33,33,0,0,1,0-66h50.0918L48.333,7.49609a2.99993,2.99993,0,0,1,3.32813-4.99219L96.63971,32.48962l.01917.01282.00226.00146.00427.00354c.08044.054.14966.12122.22437.1825.07513.06158.15485.11572.22449.1853l.00781.00781c.06464.06476.1145.13916.17224.20868a2.98714,2.98714,0,0,1,.19537.24l.00348.00421.00134.0025c.05347.08044.091.1684.13617.25305.046.08563.09821.16711.13586.25751l.00775.01709c.03284.0802.04852.16364.074.24542l.01025.03394c.02606.08722.06055.17059.07867.261l.00262.0152a2.94167,2.94167,0,0,1,.03119.3056c.00824.08905.02515.17694.02539.2666L97.99707,35l-.00061.00616c-.00024.08966-.01715.17755-.02539.2666a2.94167,2.94167,0,0,1-.03119.3056l-.00262.0152c-.01813.09039-.05261.17377-.07867.261l-.01025.03394c-.02551.08179-.0412.16522-.074.24542l-.00775.01709c-.03766.09039-.0899.17188-.13586.25751-.04517.08466-.0827.17261-.13617.25305l-.00134.0025-.00311.0036a2.99,2.99,0,0,1-.19574.2406c-.05774.06952-.1076.14392-.17224.20868-.02441.02454-.054.04321-.07928.06683-.053.04968-.10968.09137-.16565.13666-.07074.05743-.13586.12122-.21173.17212l-.00427.00354-45,30A2.99993,2.99993,0,1,1,48.333,62.50391Z"/></svg>