<svg xmlns="http://www.w3.org/2000/svg" width="100" height="100" viewBox="0 0 100 100"><title>where</title><path d="M97.973,20.28229a2.98969,2.98969,0,0,1-.0304.29907l-.00067.007-.00171.00848-.00226.01123L87.33545,73.62158a3.00016,3.00016,0,1,1-5.88379-1.17676l8.66339-43.31769-37.994,37.994a24.24,24.24,0,0,1-34.24219,0l-15-15a2.99968,2.99968,0,0,1,4.24219-4.24219l15,15a18.23573,18.23573,0,0,0,25.75781,0l37.994-37.994L42.55518,33.54834a3.00016,3.00016,0,1,1-1.17676-5.88379l53.0332-10.60645.007-.00067a3.01193,3.01193,0,0,1,.40491-.04053c.05664-.00342.11127-.016.1684-.01611l.01508-.00012c.0755.00018.14771.01556.22223.0213a3.00084,3.00084,0,0,1,.35229.03546l.0069.00067.00671.00208c.07831.01593.15125.04675.2276.06873a2.95169,2.95169,0,0,1,.32428.10028l.01178.00409c.09125.03815.17206.09167.25806.138.08124.04376.16571.07916.24353.131l.00946.00671a2.96276,2.96276,0,0,1,.25873.21057c.06244.05267.13037.09814.18842.15588l.00415.00342.003.00372c.06329.06366.11377.1377.171.20654a2.95071,2.95071,0,0,1,.19525.23969l.00867.01251c.04962.07452.08295.15552.12518.23328l.004.00739c.04626.08569.09985.16614.138.25714l.006.0166c.03729.09039.05786.18481.08594.27783.02783.09137.06354.17969.08258.274l.00122.004.00067.007a2.98969,2.98969,0,0,1,.0304.29907c.00879.09259.02649.18311.02655.27722v.01013C97.99945,20.09918,97.98175,20.1897,97.973,20.28229Z"/></svg>