<svg xmlns="http://www.w3.org/2000/svg" width="100" height="100" viewBox="0 0 100 100"><title>where</title><path d="M98.002,95.00244a2.99984,2.99984,0,0,1-3,3H64.998a33.03734,33.03734,0,0,1-33-33V14.91064L7.49414,51.6665A2.99993,2.99993,0,0,1,2.502,48.33838L32.4892,3.35754l.00952-.01434.00323-.00482.00348-.00421a2.98715,2.98715,0,0,1,.19537-.24c.05774-.06952.1076-.14392.17224-.20868l.00671-.007a2.9198,2.9198,0,0,1,.2561-.2113c.065-.05188.124-.1106.19324-.157a2.95512,2.95512,0,0,1,.31451-.17072c.067-.03418.12915-.07593.19891-.1051l.02429-.01074c.05243-.02142.1073-.03009.16046-.0484q.10693-.03662.21594-.06525c.053-.01379.10229-.03619.15643-.04718l.02142-.004c.09583-.0188.19244-.02032.28894-.0296.095-.00922.189-.02637.28473-.02649l.0033-.00031.003.00031c.09528.00012.18872.01727.28333.02643.097.00928.194.0108.29028.02966l.02069.00385c.0636.01288.12152.03864.18359.05542.05792.01569.11517.03284.17206.05194.05927.02.12018.03.17853.05389l.02228.00989c.07837.03265.14844.079.22327.11792a2.96158,2.96158,0,0,1,.28613.15411l.00092.00049.00427.00354c.07874.0528.14642.11884.2196.17859a2.92186,2.92186,0,0,1,.22943.18933l.00763.00769c.06464.06476.1145.13916.17224.20868a2.98715,2.98715,0,0,1,.19537.24l.00348.00421.00323.00482.00952.01434L67.49414,48.33838A2.99993,2.99993,0,1,1,62.502,51.6665L37.998,14.91064v50.0918a27.03078,27.03078,0,0,0,27,27H95.002A2.99984,2.99984,0,0,1,98.002,95.00244Z"/></svg>