<svg xmlns="http://www.w3.org/2000/svg" width="100" height="100" viewBox="0 0 100 100"><title>where</title><path d="M98,65V95.00439a3,3,0,1,1-6,0V65A27.03078,27.03078,0,0,0,65,38H14.9082L51.66406,62.50391a2.99993,2.99993,0,1,1-3.32812,4.99219l-45-30-.00464-.00378c-.07532-.0506-.13989-.11414-.21021-.17108-.05652-.04572-.11371-.08777-.16724-.138-.02509-.0235-.05444-.042-.07867-.06628-.064-.06409-.11328-.13776-.17047-.20654a3.00028,3.00028,0,0,1-.19733-.24231l-.00348-.004-.00165-.00311c-.052-.07831-.08826-.164-.13239-.24628a2.961,2.961,0,0,1-.13947-.26422l-.00726-.016c-.03546-.08661-.053-.17664-.08-.26508l-.00031-.001c-.028-.09186-.0639-.18-.08307-.27539L2.05743,35.579a2.95388,2.95388,0,0,1-.0318-.3114c-.00793-.08716-.02466-.1731-.025-.26086L2,35l.00067-.00677c.00031-.08777.017-.17371.025-.26086a2.95388,2.95388,0,0,1,.0318-.3114l.00238-.01392c.01917-.0954.05511-.18353.08307-.27539l.00031-.001c.02692-.08844.04449-.17847.08-.26508l.00726-.016a2.961,2.961,0,0,1,.13947-.26422c.04413-.08228.08038-.168.13239-.24628l.00165-.00311.00378-.00464a2.99816,2.99816,0,0,1,.197-.2417c.05719-.06879.10651-.14246.17047-.20654l.00787-.00787c.06458-.06445.13879-.11426.20813-.17181a3.01941,3.01941,0,0,1,.24011-.19568l.00464-.00378.00574-.00385.01233-.00818,44.98193-29.988a2.99993,2.99993,0,0,1,3.32813,4.99219L14.9082,32H65A33.03734,33.03734,0,0,1,98,65Z"/></svg>