<svg xmlns="http://www.w3.org/2000/svg" width="100" height="100" viewBox="0 0 100 100"><title>where</title><path d="M73.62158,87.33545,20.58838,97.94189l-.00708.00073-.03076.00458a2.97091,2.97091,0,0,1-.54712.05328L20,98.00012l-.00342.00037a2.96974,2.96974,0,0,1-.54706-.05328l-.03082-.00458-.00708-.00073c-.04028-.00806-.07568-.02582-.1153-.0354a2.98072,2.98072,0,0,1-.369-.10956c-.02533-.0097-.051-.01672-.07611-.02716-.05109-.02112-.09625-.05078-.14575-.07452a3.00371,3.00371,0,0,1-.27252-.14563c-.03253-.02008-.067-.0351-.09888-.05652-.03912-.02618-.07275-.05811-.11047-.08594a2.99737,2.99737,0,0,1-.25171-.20978l-.01947-.01624c-.02344-.022-.0506-.03717-.07349-.06006l-.003-.00372c-.02124-.0213-.03784-.04626-.05835-.06824a2.99233,2.99233,0,0,1-.2265-.27814c-.02844-.03876-.06348-.07233-.09-.11237-.00977-.01471-.01672-.03046-.02618-.04529a2.984,2.984,0,0,1-.1792-.33746c-.02118-.04474-.04883-.08582-.06781-.13165l-.012-.02863a3.03,3.03,0,0,1-.11713-.389c-.01141-.04535-.03-.088-.03931-.13391l-.00128-.00427-.00067-.007a2.98969,2.98969,0,0,1-.0304-.29907c-.00879-.09259-.02649-.18311-.02655-.27722v-.01013c.00006-.09412.01776-.18463.02655-.27722a2.98969,2.98969,0,0,1,.0304-.29907l.00067-.007.00171-.00848.00226-.01123L27.66455,41.37842a3.00016,3.00016,0,1,1,5.88379,1.17676L24.88495,85.87286l37.994-37.994a18.23484,18.23484,0,0,0,0-25.75781l-15-15a2.99968,2.99968,0,0,1,4.24219-4.24219l15,15a24.23973,24.23973,0,0,1,0,34.24219l-37.994,37.994,43.31769-8.66339a3.00016,3.00016,0,1,1,1.17676,5.88379Z"/></svg>