<svg xmlns="http://www.w3.org/2000/svg" width="100" height="100" viewBox="0 0 100 100"><title>where</title><path d="M75.97461,16.19482a2.99721,2.99721,0,0,1-3.5293,2.35352L29.127,9.88483,67.12109,47.87891a24.23885,24.23885,0,0,1,0,34.24219l-15,15a2.99968,2.99968,0,0,1-4.24219-4.24219l15-15a18.234,18.234,0,0,0,0-25.75781L24.88434,14.12653l8.66351,43.3183A2.99968,2.99968,0,1,1,27.665,58.62158L17.06311,5.6109l-.00348-.01721-.001-.00531-.00043-.00458A2.99372,2.99372,0,0,1,17.024,5.251c-.0069-.08179-.02338-.16138-.02344-.24438V4.99335c.00006-.083.01654-.1626.02344-.24438a2.99372,2.99372,0,0,1,.03412-.33276l.00043-.00458.00079-.0025c.01825-.09064.05255-.17542.07892-.26337a2.97443,2.97443,0,0,1,.08984-.29059l.00708-.01825c.02588-.06165.06384-.11505.09351-.17419.01294-.02576.0271-.05066.04077-.076.04413-.082.07965-.16724.1319-.24573l.01086-.015c.04626-.0686.10406-.12671.15552-.19092a3.00821,3.00821,0,0,1,.2077-.252l.00342-.00415.00775-.00635c.04407-.04364.09631-.07709.14288-.11786a2.96679,2.96679,0,0,1,.304-.24738l.00439-.00342c.07886-.05261.16418-.08887.24664-.13324a2.90071,2.90071,0,0,1,.259-.138l.00854-.00287a2.94912,2.94912,0,0,1,.33777-.10455c.07257-.02057.14172-.05017.21606-.06525l.0061-.00189.00653-.00061a2.977,2.977,0,0,1,.34308-.03467c.07776-.00629.15332-.02209.23218-.02222l.00934-.00031a2.92147,2.92147,0,0,1,.34747.03333c.077.00909.15454.00885.23077.02386l.00641.00061.00165.00031.026.00525L73.62109,12.66455A3,3,0,0,1,75.97461,16.19482Z"/></svg>