<svg xmlns="http://www.w3.org/2000/svg" width="100" height="100" viewBox="0 0 100 100"><title>where</title><path d="M97.99707,65a33.03734,33.03734,0,0,1-33,33h-.001l-60-.01562a3,3,0,0,1,.001-6h.001L64.99707,92a27,27,0,0,0,0-54H14.90527L51.66113,62.50391A2.99993,2.99993,0,1,1,48.333,67.49609l-45-30-.00427-.00354c-.07587-.0509-.141-.11469-.21173-.17212-.056-.04529-.11267-.087-.16565-.13666-.02527-.02362-.05487-.0423-.07928-.06683-.06464-.06476-.1145-.13916-.17224-.20868a2.99,2.99,0,0,1-.19574-.2406l-.00311-.0036-.00134-.0025c-.05347-.08044-.091-.1684-.13617-.25305-.046-.08563-.09821-.16711-.13586-.25751l-.00775-.01709c-.03284-.0802-.04852-.16364-.074-.24542l-.01025-.03394c-.02606-.08722-.06055-.17059-.07867-.261l-.00262-.0152a2.94167,2.94167,0,0,1-.03119-.3056c-.00824-.08905-.02515-.17694-.02539-.2666L1.99707,35l.00061-.00616c.00024-.08966.01715-.17755.02539-.2666a2.94167,2.94167,0,0,1,.03119-.3056l.00262-.0152c.01813-.09039.05261-.17377.07867-.261l.01025-.03394c.02551-.08179.0412-.16522.074-.24542L2.2276,33.849c.03766-.09039.0899-.17187.13586-.25751.04517-.08466.0827-.17261.13617-.25305l.00134-.0025.00348-.00421a2.98715,2.98715,0,0,1,.19537-.24c.05774-.06952.1076-.14392.17224-.20868l.00684-.00708a2.916,2.916,0,0,1,.251-.20715c.06659-.05341.12732-.11353.19836-.16119l.028-.01923L48.333,2.50391a2.99993,2.99993,0,0,1,3.32813,4.99219L14.90527,32h50.0918A33.03734,33.03734,0,0,1,97.99707,65Z"/></svg>