<svg xmlns="http://www.w3.org/2000/svg" width="100" height="100" viewBox="0 0 100 100"><title>where</title><path d="M82.976,5.251a2.99372,2.99372,0,0,1-.03412.33276l-.00043.00458-.001.00531-.00348.01721L72.335,58.62158a2.99968,2.99968,0,1,1-5.88281-1.17676l8.66351-43.3183L37.12109,52.12109a18.234,18.234,0,0,0,0,25.75781l15,15a2.99968,2.99968,0,1,1-4.24219,4.24219l-15-15a24.23885,24.23885,0,0,1,0-34.24219L70.873,9.88483l-43.3183,8.66351a3.00006,3.00006,0,0,1-1.17578-5.88379l53.009-10.60162.01794-.00354.00629-.00128.00653-.00061c.09094-.01794.18341-.01874.27539-.02814a2.919,2.919,0,0,1,.30109-.02887l.00812-.00018a2.92147,2.92147,0,0,1,.34747.03333c.077.00909.15454.00885.23077.02386l.00641.00061.00079.00024a2.95146,2.95146,0,0,1,.33362.10016c.07275.0235.14746.03845.21863.06769l.02368.009c.05054.02124.09387.05292.14282.07672.06055.0296.11926.062.17767.09546.05664.03247.11682.05579.17169.09222l.01672.0116c.07733.052.14319.11646.21478.175.077.06281.15875.11951.22937.18988l.00342.00281.00342.00415c.061.06128.10931.13287.16461.199a2.96554,2.96554,0,0,1,.20044.246l.009.01282c.05225.07849.08777.1637.1319.24573l.019.03552c.03772.07251.08368.13922.1156.21545l.00671.01752a2.97443,2.97443,0,0,1,.08984.29059c.02637.088.06067.17273.07892.26337l.00079.0025.00043.00458A2.99372,2.99372,0,0,1,82.976,4.749c.0069.08179.02338.16138.02344.24438v.01331C82.99933,5.08966,82.98285,5.16925,82.976,5.251Z"/></svg>