<svg xmlns="http://www.w3.org/2000/svg" width="100" height="100" viewBox="0 0 100 100"><title>where</title><path d="M97.99652,64.99951,97.99658,65a33,33,0,0,1-66,0V14.9082L7.49268,51.66406a2.99993,2.99993,0,0,1-4.99219-3.32812L32.48859,3.35376l.00787-.01172.004-.0061.00378-.00464a2.98752,2.98752,0,0,1,.197-.2417c.05719-.06879.10651-.14246.17047-.20654L32.8786,2.876a2.93106,2.93106,0,0,1,.23767-.19611c.07074-.05743.1358-.12128.21161-.17218l.00464-.00378.00146-.00073a2.94367,2.94367,0,0,1,.275-.148c.07855-.04138.15265-.08966.23517-.12408l.0199-.00885c.06433-.02625.13141-.03784.19678-.05939.0351-.01154.07043-.02167.106-.03192.07886-.02283.15375-.0545.23517-.07092l.01764-.003c.093-.01819.18677-.01941.28046-.02863.09686-.0097.19257-.0274.29016-.02771L34.99658,2l.00763.00079c.08282.00031.16388.01642.24622.02356a2.96562,2.96562,0,0,1,.3255.03326l.01324.00214a2.92113,2.92113,0,0,1,.27972.08435c.08752.02673.17651.04407.26227.07916l.01563.00708a2.96314,2.96314,0,0,1,.26685.14075c.08148.04382.1665.07971.24408.13129l.00293.00153.00464.00378a3.01768,3.01768,0,0,1,.24054.19611c.06921.0575.14331.10706.20776.17139l.00781.00787c.064.06409.11328.13776.17047.20654a2.99816,2.99816,0,0,1,.197.2417l.00378.00464.004.0061.00787.01172,29.9881,44.98218a2.99993,2.99993,0,1,1-4.99219,3.32813L37.99658,14.9082V65a27,27,0,0,0,54,0L91.981,5.001A2.99984,2.99984,0,0,1,94.98,2h.001a2.99994,2.99994,0,0,1,3,2.999l.01563,60Z"/></svg>