<svg xmlns="http://www.w3.org/2000/svg" width="100" height="100" viewBox="0 0 100 100"><title>where</title><path d="M97.976,80.251a2.99372,2.99372,0,0,1-.03412.33276l-.00043.00458-.00079.00269c-.01074.05347-.032.103-.04565.15558a3.03469,3.03469,0,0,1-.11.36652l-.01306.03168c-.02026.04889-.04987.09259-.07257.14026a2.98322,2.98322,0,0,1-.17291.326c-.01.01575-.0174.03235-.02777.048-.0274.0412-.06348.07587-.0929.11578a2.98808,2.98808,0,0,1-.2226.27325c-.02069.022-.03723.04736-.05859.06885l-.00342.00415c-.02551.02551-.05585.0426-.082.067l-.01233.01025a3.01417,3.01417,0,0,1-.25.20837c-.03778.028-.07159.06-.11084.08624-.03217.02155-.06665.03668-.09943.05682a2.9896,2.9896,0,0,1-.27258.14563c-.04926.02362-.09418.05316-.145.07422-.02521.01044-.051.01752-.07642.02728a2.99241,2.99241,0,0,1-.37079.11c-.03906.00946-.074.027-.11377.03491l-.00647.00067-.03119.0047a2.97183,2.97183,0,0,1-.5473.05322L95,83.00018l-.00293.00031a2.97251,2.97251,0,0,1-.54736-.05328l-.031-.00464-.00659-.00067L41.37891,72.33545a3.00006,3.00006,0,0,1,1.17578-5.88379L85.873,75.11517,47.87891,37.12109a18.23573,18.23573,0,0,0-25.75781,0l-15,15a2.99968,2.99968,0,0,1-4.24219-4.24219l15-15a24.23885,24.23885,0,0,1,34.24219,0L90.11566,70.87347l-8.66351-43.3183A2.99968,2.99968,0,1,1,87.335,26.37842L97.93689,79.3891l.00348.01721.001.00531.00043.00458a2.99372,2.99372,0,0,1,.03412.33276c.0069.08179.02338.16138.02344.24438v.01331C97.99933,80.08966,97.98285,80.16925,97.976,80.251Z"/></svg>