<svg xmlns="http://www.w3.org/2000/svg" width="100" height="100" viewBox="0 0 100 100"><title>where</title><path d="M97.12109,52.12109l-15,15a24.24,24.24,0,0,1-34.24219,0l-37.994-37.994,8.66339,43.31769a3.00016,3.00016,0,1,1-5.88379,1.17676L2.06207,20.60809l-.00226-.01123-.00171-.00848-.00067-.007a2.98969,2.98969,0,0,1-.0304-.29907c-.00879-.09259-.02649-.18311-.02655-.27722v-.01013c.00006-.09412.01776-.18463.02655-.27722a2.98969,2.98969,0,0,1,.0304-.29907l.00067-.007.00122-.004c.019-.0943.05475-.18262.08258-.274.02808-.093.04865-.18744.08594-.27783l.00635-.01709c.03284-.07831.07983-.147.11877-.22137l.02289-.04266c.04224-.07776.07556-.15875.12518-.23328l.01-.01416c.04926-.07312.11047-.13519.16559-.20325a2.99294,2.99294,0,0,1,.19928-.24133l.003-.00372.00677-.00555c.04321-.04279.09442-.07562.14008-.11566a2.96514,2.96514,0,0,1,.30811-.25067l.00281-.00226c.07855-.05249.16364-.08881.24573-.13306a2.93459,2.93459,0,0,1,.26868-.14142,2.96736,2.96736,0,0,1,.38074-.11749c.05756-.01544.11176-.03979.17041-.05182l.0094-.00287.007-.00067a3.00112,3.00112,0,0,1,.39948-.04c.05835-.0036.11469-.01648.17365-.01666l.01508-.00012c.07373.00018.14435.01532.21716.02081a2.98686,2.98686,0,0,1,.35754.03595l.0069.00067,53.0332,10.60645a3.00016,3.00016,0,1,1-1.17676,5.88379L14.12714,24.88495l37.994,37.994a18.23573,18.23573,0,0,0,25.75781,0l15-15a2.99968,2.99968,0,0,1,4.24219,4.24219Z"/></svg>