<svg xmlns="http://www.w3.org/2000/svg" width="100" height="100" viewBox="0 0 100 100"><title>where</title><path d="M97.12109,52.12109a2.99891,2.99891,0,0,1-4.24219,0l-15-15a18.23573,18.23573,0,0,0-25.75781,0L14.127,75.11517l43.3183-8.66351a3.00006,3.00006,0,0,1,1.17578,5.88379L5.58789,82.94189l-.00647.00067-.03119.0047a2.97183,2.97183,0,0,1-.5473.05322L5,83.00018l-.00293.00031a2.97251,2.97251,0,0,1-.54736-.05328l-.031-.00464-.00659-.00067c-.03961-.00793-.07434-.02539-.11322-.03479a3.00062,3.00062,0,0,1-.37177-.11029c-.02527-.0097-.0509-.01678-.076-.02716-.05042-.02094-.095-.05023-.14392-.07361a3.00644,3.00644,0,0,1-.27472-.14679c-.03235-.02-.06647-.03491-.09821-.05615-.03894-.02606-.07245-.0578-.10992-.08551a2.99,2.99,0,0,1-.25275-.21057l-.01117-.00934c-.02606-.02429-.05615-.0412-.08154-.06659l-.00342-.00415c-.02106-.02112-.03735-.046-.05774-.06781a2.99051,2.99051,0,0,1-.2251-.27637c-.02887-.03918-.06433-.07318-.09125-.11371-.01025-.01538-.01758-.03186-.02747-.04736a2.98089,2.98089,0,0,1-.17426-.32849c-.0224-.047-.05157-.09015-.07153-.13837l-.01294-.03137a3.04084,3.04084,0,0,1-.11035-.36755c-.01355-.05231-.03479-.10162-.04547-.15485l-.00079-.00269-.00043-.00458A2.99371,2.99371,0,0,1,2.024,80.251c-.0069-.08179-.02338-.16138-.02344-.24438v-.01331c.00006-.083.01654-.1626.02344-.24438a2.99371,2.99371,0,0,1,.03412-.33276l.00043-.00458.001-.00531.00348-.01721L12.665,26.37842a2.99968,2.99968,0,1,1,5.88281,1.17676L9.88434,70.87347,47.87891,32.87891a24.23885,24.23885,0,0,1,34.24219,0l15,15A2.99891,2.99891,0,0,1,97.12109,52.12109Z"/></svg>