<svg xmlns="http://www.w3.org/2000/svg" width="100" height="100" viewBox="0 0 100 100"><title>where</title><path d="M82.973,95.28229a2.98969,2.98969,0,0,1-.0304.29907l-.00067.007-.00128.00427c-.00934.04614-.02808.089-.03949.13452a3.03515,3.03515,0,0,1-.11682.38812l-.01215.02893c-.01929.04651-.0473.08813-.06879.13354a2.97977,2.97977,0,0,1-.17786.335c-.00964.015-.01666.031-.02655.0459-.02692.04065-.06244.07471-.09137.114a2.9845,2.9845,0,0,1-.22449.27563c-.02075.02222-.03754.04749-.059.06909l-.003.00372c-.02289.02289-.05.03809-.07349.06006l-.02087.0174a3.005,3.005,0,0,1-.24921.2077c-.038.0282-.07208.06042-.11157.08685-.03223.02161-.067.03674-.09979.05695a2.99017,2.99017,0,0,1-.27045.14459c-.0498.024-.0954.05383-.14691.07513-.02521.01044-.05109.01752-.07654.02728a2.98985,2.98985,0,0,1-.36829.10931c-.03967.00964-.0752.0274-.1156.03552l-.00708.00073-.03076.00458a2.97091,2.97091,0,0,1-.54712.05328L80,98.00012l-.00342.00037a2.96974,2.96974,0,0,1-.54706-.05328l-.03082-.00458-.00708-.00073L26.37842,87.33545a3.00016,3.00016,0,1,1,1.17676-5.88379l43.31769,8.66339-37.994-37.994a24.23973,24.23973,0,0,1,0-34.24219l15-15a2.99968,2.99968,0,0,1,4.24219,4.24219l-15,15a18.23484,18.23484,0,0,0,0,25.75781l37.994,37.994L66.45166,42.55518a3.00016,3.00016,0,1,1,5.88379-1.17676L82.93793,94.39191l.00226.01123.00171.00848.00067.007a2.98969,2.98969,0,0,1,.0304.29907c.00879.09259.02649.18311.02655.27722v.01013C82.99945,95.09918,82.98175,95.1897,82.973,95.28229Z"/></svg>